<svg width="18" height="18" viewBox="0 0 18 18" fill="none" xmlns="http://www.w3.org/2000/svg">
<path d="M9.30005 1.8C9.30005 1.8 10.95 1.95 13.05 4.05C15.15 6.15 15.3 7.8 15.3 7.8" stroke="#111111" stroke-linecap="round"/>
<path d="M9.45532 4.45174C9.45532 4.45174 10.1978 4.66387 11.3115 5.77756C12.4252 6.89125 12.6373 7.63372 12.6373 7.63372" stroke="#111111" stroke-linecap="round"/>
<path d="M6.32824 4.28715L6.815 5.15934C7.25428 5.94646 7.07794 6.97901 6.38608 7.67087C6.38608 7.67087 5.54688 8.51008 7.06843 10.0316C8.58996 11.5532 9.4292 10.714 9.4292 10.714C10.1211 10.0221 11.1536 9.84579 11.9407 10.2851L12.8129 10.7718C14.0015 11.4351 14.1418 13.102 13.0971 14.1467C12.4694 14.7744 11.7003 15.2629 10.8502 15.2951C9.41913 15.3494 6.98876 14.9872 4.55083 12.5492C2.11289 10.1113 1.75071 7.68094 1.80496 6.24983C1.83719 5.39972 2.32565 4.63069 2.9534 4.00294C3.99812 2.95823 5.66493 3.0986 6.32824 4.28715Z" stroke="#111111" stroke-linecap="round"/>
</svg>
