<svg width="24" height="24" viewBox="0 0 24 24" fill="none" xmlns="http://www.w3.org/2000/svg">
<path d="M12.4004 2.40002C12.4004 2.40002 14.6004 2.60002 17.4004 5.40002C20.2004 8.20003 20.4004 10.4 20.4004 10.4" stroke="white" stroke-width="1.5" stroke-linecap="round"/>
<path d="M12.6074 5.93567C12.6074 5.93567 13.5974 6.21851 15.0823 7.70344C16.5672 9.18836 16.8501 10.1783 16.8501 10.1783" stroke="white" stroke-width="1.5" stroke-linecap="round"/>
<path d="M8.43798 5.7162L9.08699 6.87912C9.6727 7.92861 9.43757 9.30535 8.5151 10.2278C8.5151 10.2278 7.39617 11.3468 9.4249 13.3755C11.4536 15.4042 12.5726 14.2853 12.5726 14.2853C13.4951 13.3628 14.8718 13.1277 15.9213 13.7134L17.0842 14.3624C18.669 15.2468 18.8561 17.4693 17.4632 18.8622C16.6262 19.6992 15.6008 20.3505 14.4673 20.3935C12.5592 20.4658 9.31867 19.9829 6.06809 16.7323C2.81752 13.4817 2.33461 10.2412 2.40694 8.33311C2.44991 7.19962 3.10119 6.17426 3.9382 5.33726C5.33115 3.94431 7.55356 4.13146 8.43798 5.7162Z" stroke="white" stroke-width="1.5" stroke-linecap="round"/>
</svg>
