<svg width="25" height="24" viewBox="0 0 25 24" fill="none" xmlns="http://www.w3.org/2000/svg">
<path d="M2.625 12C2.625 8.22876 2.625 6.34315 3.79657 5.17157C4.96815 4 6.85376 4 10.625 4H14.625C18.3962 4 20.2819 4 21.4534 5.17157C22.625 6.34315 22.625 8.22876 22.625 12C22.625 15.7712 22.625 17.6569 21.4534 18.8284C20.2819 20 18.3962 20 14.625 20H10.625C6.85376 20 4.96815 20 3.79657 18.8284C2.625 17.6569 2.625 15.7712 2.625 12Z" stroke="#6A6D73" stroke-width="1.5"/>
<path d="M10.625 16H6.625" stroke="#6A6D73" stroke-width="1.5" stroke-linecap="round"/>
<path d="M14.625 16H13.125" stroke="#6A6D73" stroke-width="1.5" stroke-linecap="round"/>
<path d="M2.625 10L22.625 10" stroke="#6A6D73" stroke-width="1.5" stroke-linecap="round"/>
</svg>
