<svg width="25" height="24" viewBox="0 0 25 24" fill="none" xmlns="http://www.w3.org/2000/svg">
<path d="M14.625 4H10.625C6.85376 4 4.96815 4 3.79657 5.17157C2.95303 6.01511 2.71685 7.22882 2.65072 9.25H22.5993C22.5332 7.22882 22.297 6.01511 21.4534 5.17157C20.2819 4 18.3962 4 14.625 4Z" fill="#2466FF"/>
<path d="M10.625 20H14.625C18.3962 20 20.2819 20 21.4534 18.8284C22.625 17.6569 22.625 15.7712 22.625 12C22.625 11.5581 22.625 11.142 22.6231 10.75H2.62689C2.625 11.142 2.625 11.5581 2.625 12C2.625 15.7712 2.625 17.6569 3.79657 18.8284C4.96815 20 6.85376 20 10.625 20Z" fill="#2466FF"/>
<path fill-rule="evenodd" clip-rule="evenodd" d="M5.875 16C5.875 15.5858 6.21079 15.25 6.625 15.25H10.625C11.0392 15.25 11.375 15.5858 11.375 16C11.375 16.4142 11.0392 16.75 10.625 16.75H6.625C6.21079 16.75 5.875 16.4142 5.875 16Z" fill="white"/>
<path fill-rule="evenodd" clip-rule="evenodd" d="M12.375 16C12.375 15.5858 12.7108 15.25 13.125 15.25H14.625C15.0392 15.25 15.375 15.5858 15.375 16C15.375 16.4142 15.0392 16.75 14.625 16.75H13.125C12.7108 16.75 12.375 16.4142 12.375 16Z" fill="white"/>
</svg>
