<svg fill="none" height="22" viewBox="0 0 23 22" width="23" xmlns="http://www.w3.org/2000/svg"><path d="m7.33947 5.53042.68146 1.22107c.61499 1.10196.36811 2.54754-.60048 3.51611-.00001 0 0 0-.00001 0-.00011.0001-1.17477 1.175.9553 3.3051 2.12936 2.1294 3.30426.9561 3.30506.9553.9686-.9686 2.4142-1.2155 3.5161-.6005l1.2211.6815c1.664.9286 1.8605 3.2621.3979 4.7247-.8788.8789-1.9555 1.5627-3.1456 1.6079-2.0036.0759-5.40611-.4311-8.81921-3.8443-3.41311-3.4131-3.920165-6.8156-3.84421-8.81912.04512-1.19016.72896-2.2668 1.60782-3.14565 1.46259-1.4626 3.79613-1.26608 4.72477.39789z" stroke="#251c4b" stroke-linecap="round" stroke-width="1.3"/><g stroke="#ef700f" stroke-width="1.2"><path d="m11.5 5.2c0-1.9799 0-2.96985.6151-3.58492.6151-.61508 1.605-.61508 3.5849-.61508h2.1c1.9799 0 2.9698 0 3.5849.61508.6151.61507.6151 1.60502.6151 3.58492s0 2.96985-.6151 3.58492c-.6151.61508-1.605.61508-3.5849.61508h-2.1c-1.9799 0-2.9698 0-3.5849-.61508-.6151-.61507-.6151-1.60502-.6151-3.58492z"/><path d="m13.6002 3.10156 1.1334.94452c.9643.80353 1.4464 1.20529 2.0166 1.20529s1.0524-.40176 2.0166-1.20529l1.1334-.94452" stroke-linecap="round"/></g></svg>