<svg width="25" height="24" viewBox="0 0 25 24" fill="none" xmlns="http://www.w3.org/2000/svg">
<path d="M19.0107 15.6701L20.7271 10.5208C22.2266 6.02242 22.9763 3.77322 21.789 2.58595C20.6018 1.39869 18.3526 2.14842 13.8542 3.64788L8.70487 5.36432C5.07423 6.57453 3.25892 7.17964 2.74306 8.06698C2.25231 8.91112 2.25231 9.95369 2.74306 10.7978C3.25892 11.6852 5.07423 12.2903 8.70487 13.5005C9.15481 13.6505 9.66101 13.5434 9.99794 13.2096L15.5036 7.75495C15.8133 7.44808 16.3132 7.45041 16.62 7.76015C16.9269 8.06989 16.9246 8.56975 16.6148 8.87662L11.1981 14.2432C10.8268 14.6111 10.7092 15.1742 10.8745 15.6701C12.0847 19.3007 12.6898 21.1161 13.5772 21.6319C14.4213 22.1227 15.4639 22.1227 16.308 21.6319C17.1954 21.1161 17.8005 19.3008 19.0107 15.6701Z" fill="#2466FF"/>
</svg>
