<svg width="25" height="24" viewBox="0 0 25 24" fill="none" xmlns="http://www.w3.org/2000/svg">
<path fill-rule="evenodd" clip-rule="evenodd" d="M18.5187 3.63083C17.3487 3.83896 15.7714 4.36262 13.5577 5.10051L8.54641 6.77094C6.76639 7.36428 5.4771 7.79468 4.56646 8.182C3.61439 8.58693 3.27571 8.86919 3.16571 9.0584C2.82691 9.64118 2.82691 10.361 3.16571 10.9437C3.27571 11.1329 3.61439 11.4152 4.56646 11.8201C5.4771 12.2075 6.76639 12.6379 8.54641 13.2312C8.57452 13.2406 8.60227 13.2498 8.62968 13.2589C9.00931 13.3852 9.32295 13.4895 9.59698 13.6328L14.9204 8.36811C15.2221 8.06974 15.7085 8.07243 16.0069 8.37413C16.3053 8.67583 16.3026 9.16229 16.0009 9.46067L10.7009 14.7022C10.8662 14.994 10.978 15.3302 11.1161 15.7453C11.1252 15.7727 11.1344 15.8005 11.1438 15.8286C11.7371 17.6086 12.1675 18.8979 12.5549 19.8085C12.9598 20.7606 13.242 21.0993 13.4313 21.2093C14.014 21.5481 14.7338 21.5481 15.3166 21.2093C15.5058 21.0993 15.7881 20.7606 16.193 19.8085C16.5803 18.8979 17.0107 17.6086 17.6041 15.8286L19.2745 10.8173C20.0124 8.60363 20.536 7.02627 20.7442 5.85629C20.9533 4.68074 20.7935 4.1814 20.4935 3.88146C20.1936 3.58152 19.6943 3.42171 18.5187 3.63083ZM18.2496 2.11797C19.5518 1.88632 20.7246 1.93941 21.5801 2.79491C22.4356 3.65041 22.4887 4.82322 22.257 6.12542C22.0268 7.41975 21.4653 9.10415 20.7544 11.2367L19.0495 16.3515C18.471 18.0869 18.0215 19.4354 17.607 20.41C17.2072 21.35 16.7632 22.1457 16.0889 22.5377C15.0287 23.1541 13.7192 23.1541 12.659 22.5377C11.9846 22.1457 11.5407 21.35 11.1408 20.41C10.7263 19.4354 10.2768 18.0869 9.69838 16.3515L9.68605 16.3145C9.48338 15.7065 9.42161 15.5416 9.33409 15.4109C9.23614 15.2646 9.11045 15.1389 8.96413 15.0409C8.8334 14.9534 8.66848 14.8916 8.06049 14.689L8.02345 14.6766C6.28806 14.0982 4.93963 13.6487 3.96505 13.2342C3.02496 12.8343 2.22931 12.3904 1.83728 11.716C1.22091 10.6558 1.22091 9.34634 1.83728 8.28611C2.22931 7.61177 3.02496 7.16781 3.96505 6.76797C4.93964 6.35345 6.28809 5.90397 8.02352 5.3255L13.1383 3.62057C15.2709 2.9097 16.9553 2.34822 18.2496 2.11797Z" fill="#6A6D73"/>
</svg>
