<svg width="30" height="30" viewBox="0 0 30 30" fill="none" xmlns="http://www.w3.org/2000/svg">
<path d="M12.2268 4.86345C12.9316 4.26279 13.284 3.96246 13.6525 3.78634C14.5048 3.379 15.4955 3.379 16.3478 3.78634C16.7162 3.96246 17.0686 4.26279 17.7735 4.86345C18.054 5.10251 18.1943 5.22205 18.3441 5.32245C18.6875 5.55261 19.0731 5.71235 19.4787 5.79242C19.6556 5.82734 19.8393 5.842 20.2067 5.87132C21.1298 5.94499 21.5914 5.98182 21.9765 6.11784C22.8671 6.43243 23.5677 7.133 23.8823 8.02366C24.0183 8.40874 24.0552 8.87031 24.1288 9.79344C24.1581 10.1608 24.1728 10.3446 24.2077 10.5215C24.2878 10.927 24.4475 11.3127 24.6777 11.6561C24.7781 11.8059 24.8976 11.9461 25.1367 12.2267C25.7374 12.9315 26.0377 13.2839 26.2138 13.6524C26.6212 14.5046 26.6212 15.4954 26.2138 16.3476C26.0377 16.7161 25.7374 17.0685 25.1367 17.7734C24.8976 18.0539 24.7781 18.1942 24.6777 18.344C24.4475 18.6874 24.2878 19.073 24.2077 19.4786C24.1728 19.6555 24.1581 19.8392 24.1288 20.2066C24.0552 21.1297 24.0183 21.5913 23.8823 21.9764C23.5677 22.867 22.8672 23.5676 21.9765 23.8822C21.5914 24.0182 21.1298 24.055 20.2067 24.1287C19.8393 24.158 19.6556 24.1727 19.4787 24.2076C19.0731 24.2877 18.6875 24.4474 18.3441 24.6776C18.1943 24.778 18.054 24.8975 17.7735 25.1366C17.0686 25.7372 16.7162 26.0376 16.3478 26.2137C15.4955 26.621 14.5048 26.621 13.6525 26.2137C13.284 26.0376 12.9316 25.7372 12.2268 25.1366C11.9463 24.8975 11.806 24.778 11.6562 24.6776C11.3128 24.4474 10.9272 24.2877 10.5216 24.2076C10.3447 24.1727 10.161 24.158 9.79356 24.1287C8.87043 24.055 8.40887 24.0182 8.02378 23.8822C7.13312 23.5676 6.43255 22.867 6.11796 21.9764C5.98195 21.5913 5.94511 21.1297 5.87145 20.2066C5.84213 19.8392 5.82747 19.6555 5.79254 19.4786C5.71247 19.073 5.55273 18.6874 5.32257 18.344C5.22217 18.1942 5.10264 18.0539 4.86357 17.7734C4.26291 17.0685 3.96258 16.7161 3.78646 16.3476C3.37912 15.4954 3.37912 14.5046 3.78646 13.6524C3.96258 13.2839 4.26291 12.9315 4.86357 12.2267C5.10264 11.9461 5.22217 11.8059 5.32257 11.6561C5.55273 11.3127 5.71247 10.927 5.79254 10.5215C5.82747 10.3446 5.84213 10.1608 5.87145 9.79344C5.94511 8.87031 5.98195 8.40874 6.11796 8.02366C6.43255 7.133 7.13312 6.43243 8.02378 6.11784C8.40887 5.98182 8.87043 5.94499 9.79356 5.87132C10.161 5.842 10.3447 5.82734 10.5216 5.79242C10.9272 5.71235 11.3128 5.55261 11.6562 5.32245C11.806 5.22205 11.9463 5.10251 12.2268 4.86345Z" fill="#40AE61"/>
<path d="M9.17287 6.66801C9.1107 6.6769 9.04533 6.68532 8.97966 6.69345C8.89055 6.70449 8.79855 6.71521 8.71111 6.72632C8.62567 6.73717 8.54388 6.74856 8.47007 6.76114C8.39173 6.77482 8.3334 6.78615 8.26615 6.804C8.1925 6.82518 8.13686 6.8426 8.08463 6.85973C7.99343 6.89173 8.02051 6.83531 7.95521 6.8584C7.93777 6.86481 7.92087 6.87191 7.90431 6.87957C7.79923 6.92839 7.71246 6.99696 7.60924 7.05185C7.57251 7.07149 7.57642 7.00188 7.54488 7.00951C7.54215 7.01019 7.53916 7.01145 7.53585 7.0134C7.42717 7.07793 7.3313 7.15668 7.24314 7.24302C7.15298 7.3314 7.07074 7.42763 6.98871 7.52928C6.98227 7.53726 6.97583 7.54528 6.96939 7.55334C6.8957 7.6455 6.82847 7.74307 6.7684 7.84509C6.70082 7.96145 6.65082 8.06068 6.59805 8.19323C6.58168 8.23025 6.57026 8.25615 6.55616 8.29469C6.54236 8.33255 6.52855 8.37555 6.51481 8.42616C6.50104 8.47696 6.4873 8.53541 6.47336 8.60737C6.45953 8.67872 6.44547 8.76394 6.43115 8.86891C6.41675 8.97439 6.40198 9.1009 6.38596 9.25842C6.36993 9.41558 6.35257 9.60515 6.33254 9.83023C6.33254 9.83023 6.33254 9.83023 6.33254 9.83023C6.32846 9.87071 6.32436 9.91154 6.32024 9.95225C6.31613 9.9928 6.31193 10.0342 6.30765 10.0753C6.30334 10.1168 6.29891 10.1585 6.29416 10.2008C6.2894 10.2433 6.28434 10.2863 6.27859 10.3305C6.27285 10.3747 6.26644 10.42 6.25884 10.4665C6.2514 10.5122 6.2421 10.5626 6.23226 10.6083C6.23226 10.6083 6.23226 10.6083 6.23226 10.6083C6.21687 10.6802 6.19641 10.7633 6.17541 10.8368C6.154 10.9122 6.13011 10.9869 6.10379 11.0608C6.0775 11.1345 6.04879 11.2074 6.01769 11.2794C5.98666 11.3512 5.95325 11.422 5.91752 11.4916C5.88186 11.5611 5.8439 11.6295 5.8037 11.6966C5.76468 11.7619 5.7187 11.8332 5.67675 11.8935C5.66444 11.9106 5.64801 11.9332 5.63222 11.9542C5.62605 11.9624 5.6197 11.9708 5.61307 11.9794C5.60267 11.993 5.59137 12.0074 5.5793 12.0224C5.55993 12.0465 5.53841 12.0724 5.51351 12.1015C5.4891 12.1301 5.4616 12.1616 5.42917 12.1983C5.39735 12.2342 5.36081 12.2751 5.31764 12.3234C5.27519 12.3708 5.22606 12.4256 5.17037 12.4881C5.17037 12.4881 5.17037 12.4881 5.17037 12.4881C5.10308 12.5602 5.03447 12.6336 4.96701 12.7066C4.89993 12.7792 4.83281 12.8529 4.76824 12.926C4.70254 13.0003 4.63916 13.0744 4.57924 13.1488C4.52038 13.2218 4.46493 13.2952 4.41607 13.367C4.41356 13.3707 4.41163 13.3742 4.41016 13.3774C4.39164 13.418 4.44797 13.4222 4.44501 13.4332C4.39927 13.6151 4.34247 13.5032 4.26758 13.5883C4.26418 13.5923 4.26082 13.5962 4.25749 13.6002C4.20155 13.6671 4.15372 13.7321 4.10975 13.8069C4.10975 13.8069 4.10975 13.8069 4.10975 13.8069C4.0376 13.9329 3.98526 14.0486 3.93999 14.1834C3.89562 14.3162 3.86508 14.4528 3.84799 14.5871C3.83662 14.6761 3.8311 14.7641 3.83072 14.8493C3.83306 15.0193 3.93328 14.8751 3.89425 15C3.89157 15.0091 3.88824 15.0196 3.88422 15.0317C3.88021 15.0446 3.82095 14.9989 3.81535 15.0491C3.80404 15.1448 3.82276 15.3118 3.83875 15.4143C3.84163 15.4345 3.84416 15.4522 3.84582 15.4667C3.86768 15.6361 3.8754 15.6642 3.9196 15.8198C3.91988 15.8207 3.92017 15.8217 3.92045 15.8226C3.95852 15.9495 3.9959 16.0779 4.05655 16.2185C4.05655 16.2185 4.05655 16.2185 4.05655 16.2185C4.07155 16.2581 4.08684 16.2914 4.11134 16.3282C4.11447 16.3329 4.11759 16.3373 4.12102 16.3421C4.13673 16.3634 4.17154 16.3035 4.20122 16.334C4.21526 16.3485 4.23467 16.3779 4.25609 16.4133C4.28038 16.4538 4.30898 16.504 4.32014 16.5329C4.34144 16.5873 4.28942 16.5957 4.28656 16.6103C4.28542 16.6167 4.28496 16.6231 4.28512 16.6294C4.28588 16.7017 4.37793 16.7745 4.46394 16.8366C4.51451 16.873 4.56094 16.9037 4.57179 16.9152C4.62623 16.9737 4.68554 17.0389 4.7516 17.113C4.85921 17.2337 4.985 17.378 5.1293 17.5469C5.15592 17.578 5.18233 17.6093 5.20825 17.6406C5.23435 17.6721 5.26061 17.7042 5.28623 17.7361C5.31234 17.7686 5.3381 17.8012 5.36384 17.8344C5.3898 17.868 5.41557 17.9019 5.44142 17.937C5.46733 17.9721 5.49321 18.0082 5.51889 18.0457C5.54422 18.0828 5.57076 18.1233 5.59436 18.1618C5.59436 18.1618 5.59436 18.1618 5.59436 18.1618C5.63206 18.2234 5.67239 18.2935 5.7074 18.3591C5.74293 18.4256 5.77676 18.4931 5.80917 18.5619C5.8365 18.6199 5.86282 18.6787 5.88829 18.7386C5.89259 18.7487 5.89687 18.7588 5.90111 18.769C5.92995 18.8381 5.95725 18.9086 5.98261 18.9803C6.00771 19.0513 6.03091 19.1234 6.05189 19.1962C6.07249 19.2674 6.09228 19.3459 6.10778 19.4163C6.11278 19.4366 6.11854 19.4623 6.12369 19.4871C6.12892 19.5123 6.13413 19.5398 6.13916 19.5693C6.14428 19.5995 6.14926 19.6321 6.15418 19.6687C6.15916 19.7059 6.16406 19.747 6.16903 19.7944C6.17407 19.8425 6.17918 19.897 6.18459 19.9602C6.1901 20.0245 6.19594 20.0981 6.20223 20.1802C6.2025 20.1839 6.20276 20.1875 6.20303 20.1911C6.21008 20.2892 6.21591 20.3849 6.22113 20.4779C6.22676 20.5783 6.23178 20.6773 6.23701 20.7739C6.24236 20.8727 6.24796 20.9697 6.25521 21.0668C6.26234 21.1623 6.27113 21.2583 6.28322 21.3525C6.29467 21.4415 6.30909 21.5295 6.32891 21.616C6.32968 21.6194 6.3307 21.6222 6.33193 21.6245C6.3478 21.6531 6.39755 21.5971 6.41015 21.6486C6.42853 21.7213 6.4466 21.782 6.47149 21.8515C6.52136 21.9887 6.57108 22.101 6.63533 22.2256C6.69815 22.3466 6.76889 22.4634 6.84693 22.5756C6.92501 22.6878 7.01039 22.7954 7.1025 22.8976C7.18795 22.9925 7.27918 23.0829 7.37587 23.1685C7.4184 23.2058 7.33912 23.2106 7.35726 23.2442C7.35921 23.2477 7.36226 23.2516 7.36667 23.2558C7.45526 23.3406 7.5651 23.4388 7.69054 23.523C7.8153 23.6069 7.94701 23.6734 8.08472 23.7097C8.08472 23.7097 8.08472 23.7097 8.08472 23.7097C8.13276 23.7171 8.17888 23.7096 8.22724 23.683C8.25728 23.6663 8.28634 23.6416 8.31371 23.6075C8.33778 23.6156 8.36448 23.6238 8.39452 23.6326C8.44701 23.6479 8.50882 23.6644 8.58285 23.6832C8.65866 23.7025 8.74846 23.7243 8.84852 23.7494C8.8986 23.762 8.9506 23.7753 9.0047 23.7897C9.21028 23.8417 9.02849 23.8845 9.2343 23.8906C9.25407 23.8912 9.2779 23.8915 9.30702 23.8916C9.38649 23.8919 9.28718 23.824 9.40918 23.8291C9.52779 23.8341 9.66301 23.842 9.81561 23.8524C9.85603 23.8546 9.897 23.8572 9.93785 23.8599C9.97834 23.8627 10.0197 23.8657 10.0606 23.8686C10.102 23.8717 10.1433 23.8747 10.1849 23.8778C10.227 23.8809 10.2693 23.8839 10.3121 23.8871C10.3555 23.8903 10.3994 23.8935 10.4438 23.897C10.475 23.8994 10.5057 23.9019 10.5376 23.9046C10.5613 23.9067 10.5746 23.9013 10.5837 23.8932C10.6005 23.878 10.6022 23.853 10.6148 23.8492C10.6775 23.8315 10.7558 23.8501 10.8219 23.8808C10.907 23.9196 10.9803 23.9793 11.0219 24.0115C11.0335 24.0204 11.0427 24.0272 11.0493 24.0308C11.1093 24.0635 11.1661 24.0945 11.2207 24.1244C11.2892 24.1618 11.3544 24.1973 11.4179 24.2322C11.4843 24.2688 11.5488 24.3047 11.6127 24.3416C11.6756 24.378 11.7424 24.4183 11.8034 24.458C11.8206 24.4688 11.8417 24.4826 11.8626 24.497C11.8802 24.5092 11.8989 24.5226 11.9193 24.5381C11.9231 24.5409 11.9265 24.543 11.9296 24.5443C11.9664 24.5603 11.9559 24.4764 12.0025 24.5095C12.0186 24.5211 12.0354 24.5335 12.0535 24.5473C12.0832 24.5698 12.1158 24.5953 12.1532 24.6257C12.1905 24.6558 12.2325 24.6907 12.2816 24.732C12.3304 24.7732 12.3864 24.821 12.4496 24.8751C12.525 24.9401 12.6001 25.0064 12.6734 25.0724C12.7472 25.139 12.8205 25.2064 12.8916 25.2731C12.9431 25.3215 12.9931 25.3692 13.0428 25.417C13.1068 25.4786 13.0055 25.4743 13.034 25.506C13.0423 25.5152 13.0511 25.524 13.0594 25.5316C13.1551 25.6187 13.2385 25.601 13.3282 25.6558C13.3478 25.6677 13.3669 25.6823 13.3874 25.7022C13.4135 25.7273 13.3668 25.7578 13.3688 25.7663C13.3925 25.8628 13.4767 25.8615 13.5283 25.8553C13.5484 25.853 13.5641 25.8504 13.5706 25.8535C13.6495 25.8905 13.7086 25.9249 13.7719 25.9639C13.9031 26.0431 14.0035 26.1241 14.1453 26.1851C14.2013 26.2091 14.262 26.2287 14.3295 26.2405C14.3672 26.2467 14.2988 26.1638 14.4029 26.1844C14.4608 26.1953 14.5193 26.2046 14.5782 26.2124C14.7171 26.2308 14.8583 26.2404 15.0001 26.2408C15.1408 26.2412 15.2821 26.2325 15.4224 26.2147C15.5629 26.1968 15.7024 26.1698 15.8393 26.1339C15.9801 26.0966 16.1077 26.0549 16.2451 25.999C16.2451 25.999 16.2451 25.999 16.2451 25.999C16.2859 25.9857 16.3228 25.9736 16.3664 25.957C16.3671 25.9567 16.3678 25.9565 16.3685 25.9562C16.4219 25.9351 16.4113 25.998 16.4172 26.0017C16.5186 26.0534 16.4919 25.9191 16.5075 25.9034C16.5093 25.9017 16.5111 25.9 16.5129 25.8983C16.558 25.8569 16.6154 25.8236 16.6794 25.7835C16.7495 25.7396 16.8278 25.6871 16.8977 25.6129C16.9502 25.5573 16.9979 25.4896 17.033 25.4059C17.073 25.3748 17.1152 25.3414 17.1605 25.305C17.2847 25.2054 17.4318 25.0837 17.605 24.9389C17.6366 24.9132 17.6683 24.8872 17.6998 24.8613C17.7311 24.8355 17.7631 24.8091 17.7947 24.7831C17.8266 24.7569 17.8585 24.7306 17.8909 24.7043C17.9234 24.6778 17.9562 24.6514 17.9898 24.6248C18.0235 24.5983 18.0579 24.5717 18.0936 24.5454C18.1288 24.5194 18.1669 24.4924 18.2036 24.468C18.2036 24.468 18.2036 24.468 18.2036 24.468C18.263 24.4283 18.3294 24.3869 18.3926 24.3504C18.4569 24.3132 18.5223 24.2781 18.5888 24.2453C18.6554 24.2124 18.723 24.1818 18.7916 24.1534C18.8602 24.1251 18.9298 24.0991 19.0001 24.0755C19.0705 24.052 19.1417 24.0309 19.2135 24.0123C19.2841 23.994 19.3604 23.9771 19.4306 23.9643C19.451 23.9609 19.4758 23.957 19.5003 23.9536C19.525 23.9502 19.5519 23.9468 19.5811 23.9437C19.6106 23.9405 19.6427 23.9374 19.679 23.9344C19.7155 23.9314 19.7561 23.9285 19.8035 23.9254C19.8509 23.9223 19.905 23.9191 19.9687 23.9155C20.0322 23.9119 20.1056 23.9079 20.1887 23.9033C20.2882 23.9002 20.3885 23.898 20.4876 23.8967C20.5868 23.8955 20.6868 23.8951 20.7857 23.8955C20.8408 23.8957 20.8957 23.8961 20.9505 23.8967C20.9668 23.8967 20.9439 23.9621 20.9764 23.9618C21.0195 23.9615 21.0563 23.9601 21.0893 23.9574C21.264 23.9429 21.3031 23.8989 21.3692 23.8322C21.4028 23.7982 21.4431 23.7582 21.5082 23.7103C21.5316 23.693 21.5829 23.7032 21.6358 23.7193C21.7052 23.741 21.78 23.7716 21.7906 23.7748C21.8595 23.7956 21.8248 23.9028 21.8465 23.9044C21.9118 23.9071 21.9397 23.8717 21.9556 23.8231C21.9556 23.8231 21.9556 23.8231 21.9556 23.8231C21.9856 23.732 21.9807 23.5968 22.1057 23.5416C22.1122 23.5393 22.1091 23.603 22.1282 23.6006C22.1889 23.593 22.2315 23.5472 22.2911 23.5383C22.2996 23.537 22.3081 23.5362 22.3165 23.5357C22.4406 23.5287 22.5598 23.6097 22.6771 23.4305C22.6882 23.412 22.6152 23.3375 22.6511 23.2551C22.6622 23.2291 22.6838 23.2023 22.7217 23.1746C22.7603 23.1472 22.8716 23.054 22.9636 22.9635C23.0245 22.9046 23.078 22.8481 23.1066 22.8219C23.1786 22.7551 23.1785 22.8423 23.1847 22.8388C23.2884 22.7676 23.3354 22.7434 23.3735 22.7384C23.4196 22.7314 23.4509 22.7519 23.5459 22.7214C23.7189 22.6607 23.4748 22.5513 23.4793 22.4894C23.4817 22.4539 23.5317 22.3942 23.5805 22.3401C23.618 22.2989 23.6551 22.2612 23.6728 22.2457C23.7136 22.2096 23.7192 22.2817 23.7494 22.2461C23.943 21.9998 23.6802 22.077 23.6774 21.9738C23.676 21.9497 23.6771 21.9268 23.68 21.9049C23.6749 21.8553 23.7178 21.8309 23.7684 21.797C23.8143 21.7667 23.8651 21.7323 23.8852 21.68C23.8902 21.6668 23.8853 21.6617 23.8777 21.6585C23.8664 21.6536 23.8492 21.6531 23.8508 21.6338C23.856 21.5702 23.8768 21.5162 23.8936 21.4504C23.9106 21.3828 23.9232 21.3062 23.91 21.1746C23.9099 21.1732 23.9096 21.1716 23.9093 21.1698C23.9011 21.1246 23.8356 20.9498 23.887 20.7655C23.8943 20.7403 23.9039 20.7148 23.9163 20.6909C23.9312 20.6615 23.9722 20.7532 23.9961 20.5993C24.0106 20.5039 24.0274 20.3667 24.044 20.1998C24.044 20.1998 24.044 20.1998 24.044 20.1998C24.049 20.1599 24.0535 20.1184 24.0569 20.0782C24.0606 20.036 24.0632 19.994 24.0643 19.9561C24.065 19.9322 24.0652 19.9099 24.0646 19.8892C24.0627 19.8114 24.0126 19.8525 24.0016 19.8268C23.9978 19.8176 23.9988 19.8003 24.0087 19.7665C24.0258 19.7086 24.061 19.8225 24.0895 19.714C24.0898 19.7129 24.0901 19.7119 24.0904 19.7109C24.0983 19.6806 24.1066 19.6372 24.1159 19.5884C24.1233 19.5498 24.1315 19.5071 24.1404 19.4653C24.1562 19.39 24.1743 19.3138 24.1881 19.2602C24.1917 19.2461 24.195 19.2335 24.1978 19.2226C24.2262 19.1188 24.1518 19.1578 24.1502 19.1484C24.1473 19.1253 24.1512 19.0779 24.1586 19.0281C24.1696 18.9526 24.1899 18.872 24.1942 18.8614C24.2001 18.8462 24.2062 18.831 24.2124 18.8158C24.2401 18.7481 24.2706 18.6819 24.3034 18.6173C24.3365 18.5521 24.3721 18.4886 24.4099 18.4269C24.4476 18.3653 24.4895 18.3024 24.5307 18.2455C24.5433 18.2293 24.5582 18.2105 24.5736 18.1918C24.589 18.173 24.606 18.1527 24.6247 18.1309C24.6436 18.1089 24.6643 18.0851 24.6881 18.0583C24.712 18.0312 24.7388 18.0013 24.7702 17.9663C24.8017 17.9313 24.8378 17.8912 24.8804 17.844C24.9228 17.7968 24.9719 17.7422 25.0273 17.6801C25.0953 17.6074 25.1635 17.5341 25.2304 17.4609C25.2973 17.3879 25.364 17.3137 25.429 17.239C25.4938 17.1646 25.5574 17.0893 25.6195 17.0118C25.6804 16.9357 25.7402 16.8569 25.7957 16.7767C25.7992 16.7718 25.8026 16.7668 25.806 16.7619C25.8437 16.7065 25.7656 16.7045 25.7708 16.6956C25.88 16.4959 25.916 16.7416 26.0552 16.638C26.0029 16.6158 25.9865 16.5909 25.9904 16.5582C25.9952 16.5153 26.0362 16.4583 26.071 16.3755C26.0994 16.3057 26.0354 16.3197 26.034 16.3112C26.0313 16.2929 26.0314 16.2763 26.0335 16.2614C26.0335 16.2614 26.0335 16.2614 26.0335 16.2614C26.0468 16.1687 26.1374 16.1456 26.1604 16.1356C26.2579 16.0942 26.204 15.9848 26.2667 15.9527C26.3273 15.9192 26.3591 16.0467 26.4037 15.9218C26.4055 15.9166 26.4073 15.9109 26.4092 15.9047C26.3769 15.8499 26.2283 15.9238 26.2419 15.8077C26.2534 15.6995 26.2748 15.5722 26.2939 15.4342C26.3132 15.2963 26.3299 15.1477 26.3376 15C26.3457 14.8469 26.344 14.695 26.3331 14.56C26.3229 14.4307 26.3048 14.317 26.2849 14.2328C26.2755 14.1931 26.266 14.1568 26.2565 14.1233C26.1978 13.9227 26.1515 13.8251 26.1024 13.7056C26.097 13.6905 26.0922 13.6754 26.0868 13.6576C26.0762 13.6227 26.0641 13.5984 26.0512 13.5811C26.002 13.5168 25.9622 13.5708 25.8789 13.4998C25.8788 13.4996 25.8786 13.4995 25.8784 13.4993C25.7626 13.3994 25.9837 13.3321 26.0113 13.2873C26.0365 13.24 25.9803 13.2453 25.9822 13.2031C25.9832 13.164 26.0407 13.1943 26.0221 13.1472C26.0201 13.1422 26.0173 13.1364 26.0134 13.1295C25.9891 13.0861 25.8988 13.0135 25.8043 12.9502C25.7422 12.9087 25.68 12.8729 25.6529 12.8712C25.5138 12.8586 25.535 13.0461 25.3545 12.7983C25.3419 12.7813 25.3279 12.7618 25.3123 12.7395C25.2975 12.7184 25.3959 12.7446 25.3367 12.6653C25.2561 12.5582 25.1609 12.4366 25.0513 12.2995C25.0513 12.2995 25.0513 12.2995 25.0513 12.2995C25.0272 12.2667 25.0026 12.2338 24.9781 12.2011C24.9538 12.1687 24.9289 12.1357 24.9044 12.1032C24.8796 12.0704 24.8549 12.0378 24.8302 12.0049C24.8055 11.9719 24.781 11.9388 24.7567 11.9052C24.7323 11.8716 24.7084 11.8375 24.685 11.8028C24.6617 11.7681 24.6387 11.7323 24.6174 11.6965C24.5815 11.6366 24.5471 11.574 24.5162 11.5117C24.4849 11.4485 24.4563 11.3845 24.4309 11.3197C24.4292 11.3156 24.4276 11.3115 24.426 11.3074C24.4035 11.2477 24.4865 11.2707 24.4744 11.2362C24.4542 11.1771 24.4378 11.132 24.4225 11.0971C24.3671 10.9669 24.3206 10.9818 24.2366 10.9455C24.2065 10.9321 24.1718 10.9117 24.1318 10.873C24.239 10.8725 24.3002 10.8139 24.3156 10.7058C24.3234 10.651 24.3203 10.5848 24.3074 10.5018C24.3066 10.4951 24.3057 10.4885 24.3044 10.4813C24.3015 10.4655 24.2968 10.4531 24.2906 10.4428C24.2709 10.4097 24.2364 10.4048 24.2001 10.3829C24.1876 10.375 24.1749 10.3649 24.1625 10.3492C24.1555 10.3403 24.1566 10.3201 24.1585 10.2954C24.1617 10.2565 24.1668 10.202 24.1449 10.1882C24.1383 10.1841 24.1316 10.1806 24.125 10.1777C24.0368 10.133 23.9582 10.2171 23.9376 10.0296C23.9326 9.98258 23.9305 9.9166 23.9305 9.80927C23.9305 9.80914 23.9305 9.80901 23.9305 9.80889C23.9309 9.80416 23.939 9.80575 23.9493 9.80776C23.9631 9.81417 23.9807 9.82231 23.9888 9.80462C23.9922 9.80096 23.9943 9.79533 23.9943 9.78692C23.9944 9.65793 23.9721 9.58133 23.9436 9.5087C23.9117 9.4278 23.8725 9.35289 23.8476 9.21865C23.8441 9.20016 23.8408 9.17905 23.8379 9.15775C23.829 9.09188 23.8244 9.01219 23.8214 8.9252C23.8182 8.83319 23.8166 8.7322 23.8129 8.63377C23.8091 8.53422 23.8028 8.436 23.7912 8.34857C23.7852 8.30383 23.7779 8.26199 23.7693 8.22388C23.866 8.20135 23.8783 8.1187 23.8381 8.03926C23.805 7.97296 23.7378 7.91243 23.6673 7.89285C23.6383 7.81908 23.6017 7.74275 23.5634 7.66907C23.519 7.58352 23.4718 7.50015 23.4297 7.41949C23.4024 7.36786 23.4672 7.37016 23.4679 7.36094C23.4725 7.29315 23.4416 7.25752 23.4059 7.23764C23.3647 7.21468 23.317 7.21198 23.3025 7.19768C23.2149 7.10922 23.1363 7.02396 23.058 6.94217C22.9531 6.8329 22.8482 6.72951 22.7258 6.64391C22.6354 6.58081 22.5355 6.52772 22.4222 6.49323C22.4098 6.48961 22.3454 6.5662 22.3 6.49532C22.2939 6.48605 22.2881 6.47423 22.2825 6.45936C22.2811 6.45537 22.3094 6.45473 22.3256 6.44717C22.3337 6.44335 22.3388 6.43771 22.3353 6.42875C22.3306 6.41656 22.3101 6.39782 22.2588 6.37094C22.1792 6.3294 22.0738 6.26368 21.9449 6.20726C21.9449 6.20726 21.9449 6.20726 21.9449 6.20726C21.9073 6.18637 21.8652 6.16866 21.817 6.16141C21.7904 6.1574 21.7626 6.1568 21.7339 6.16086C21.7162 6.16333 21.6827 6.18215 21.6437 6.1917C21.5999 6.20249 21.5498 6.20174 21.5071 6.15129C21.4962 6.13839 21.5164 6.10506 21.5011 6.08201C21.4878 6.06229 21.4734 6.05649 21.4585 6.0563C21.4175 6.05578 21.3765 6.09719 21.3212 6.00976C21.2948 5.96812 21.2532 5.92802 21.1922 5.89517C21.1062 5.84939 20.9843 5.8178 20.7919 5.81378C20.7256 5.81238 20.6508 5.81423 20.5654 5.81973C20.5486 5.82052 20.4236 5.91185 20.2351 5.89524C20.2253 5.89437 20.2152 5.89346 20.205 5.89252C20.1678 5.88851 20.1263 5.88291 20.0837 5.87672C20.0445 5.87101 20.0032 5.86472 19.9627 5.85862C19.9214 5.85242 19.8806 5.84639 19.8416 5.84115C19.8114 5.8371 19.7819 5.8335 19.7547 5.83075C19.7354 5.82881 19.7248 5.83288 19.7188 5.83971C19.709 5.85119 19.713 5.87052 19.7141 5.88183C19.7145 5.88611 19.7145 5.88923 19.7132 5.89036C19.7128 5.89067 19.7123 5.89082 19.7117 5.89081C19.6698 5.88933 19.629 5.88665 19.5888 5.88257C19.5465 5.87829 19.5046 5.8723 19.4644 5.86488C19.3943 5.85199 19.3253 5.83482 19.2596 5.81477C19.1921 5.79419 19.1265 5.77027 19.0615 5.7433C18.9979 5.71688 18.9347 5.68753 18.8709 5.65517C18.8107 5.62463 18.7499 5.5914 18.6874 5.55508C18.6329 5.52334 18.5771 5.48924 18.5195 5.45228C18.5166 5.45042 18.5135 5.44855 18.5101 5.44666C18.4706 5.4249 18.3959 5.39976 18.3181 5.36127C18.299 5.3549 18.2782 5.34568 18.2585 5.33279C18.2387 5.3198 18.2191 5.30245 18.2028 5.28015C18.1946 5.26892 18.1871 5.25647 18.1808 5.24272C18.17 5.21921 18.1677 5.19435 18.1714 5.16968C18.1818 5.08307 18.2701 5.00623 18.2325 4.90796C18.219 4.87516 18.1916 4.83917 18.1277 4.78476C18.0885 4.7514 18.0351 4.71057 17.9576 4.65488C17.9563 4.65394 17.955 4.653 17.9536 4.65206C17.8776 4.60831 17.7363 4.6223 17.6004 4.60564C17.4951 4.59272 17.3926 4.56105 17.3244 4.46941C17.3019 4.43922 17.2835 4.40303 17.269 4.35814C17.2178 4.32235 17.1678 4.28577 17.1185 4.24888C17.0382 4.18869 16.959 4.12669 16.8805 4.06606C16.8007 4.00444 16.7206 3.94346 16.6375 3.88599C16.5544 3.82849 16.4669 3.77405 16.3758 3.72765C16.2377 3.65709 16.0881 3.59741 15.9336 3.55844C15.8533 3.53812 15.7709 3.52305 15.687 3.51433C15.6581 3.51093 15.5517 3.60059 15.4904 3.5895C15.4771 3.58698 15.4648 3.58369 15.4532 3.57985C15.3848 3.55727 15.3426 3.51444 15.2843 3.50607C15.188 3.49202 15.0932 3.48944 15.0001 3.49352C14.8444 3.50043 14.6946 3.52556 14.5425 3.54931C14.5168 3.55333 14.491 3.55734 14.465 3.56123C14.3621 3.5781 14.3876 3.5184 14.2633 3.54375C14.195 3.55863 14.1453 3.59344 14.087 3.62482C14.0393 3.65064 13.9858 3.67416 13.909 3.68665C13.8222 3.70057 13.7112 3.66961 13.5968 3.66985C13.5671 3.65843 13.5378 3.65264 13.51 3.66101C13.5494 3.74274 13.5414 3.78128 13.5103 3.82208C13.4931 3.84455 13.4682 3.86815 13.4388 3.90151C13.4227 3.91989 13.4696 3.9483 13.4633 3.9591C13.453 3.97809 13.4363 3.98716 13.4186 3.99524C13.3948 4.00618 13.3691 4.01531 13.3541 4.04451C13.3477 4.05681 13.3745 4.09649 13.3707 4.10894C13.3607 4.14412 13.3338 4.1678 13.2987 4.18599C13.2291 4.22138 13.1197 4.23978 13.0925 4.24518C13.0613 4.25071 13.0339 4.26085 13.0111 4.27224C12.9215 4.31809 12.8878 4.39 12.7825 4.44857C12.6444 4.52716 12.8034 4.34886 12.6493 4.4554C12.6471 4.45694 12.6449 4.45848 12.6427 4.46002C12.5203 4.54591 12.3694 4.66513 12.1864 4.81608C12.1864 4.81608 12.1864 4.81608 12.1864 4.81608C12.1547 4.84119 12.1228 4.86704 12.0914 4.89285C12.06 4.91861 12.0284 4.94498 11.9976 4.97064C11.9659 4.99713 11.9348 5.02317 11.9043 5.04846C11.8722 5.07498 11.8409 5.1005 11.8104 5.1246C11.8027 5.13066 11.7948 5.13683 11.7872 5.14268C11.7086 5.203 11.8008 5.21232 11.7905 5.22209C11.7792 5.23227 11.7675 5.24208 11.7555 5.25147C11.7232 5.27688 11.6889 5.29947 11.6547 5.32024C11.6547 5.32024 11.6547 5.32024 11.6547 5.32024C11.5919 5.35847 11.5303 5.39137 11.4802 5.42931C11.4292 5.46792 11.3901 5.51184 11.3727 5.57337C11.34 5.54719 11.314 5.52787 11.2928 5.51452C11.1786 5.44096 11.2019 5.54873 11.1216 5.63652C11.0896 5.67135 11.0408 5.70251 10.9629 5.71217C10.9378 5.71511 10.862 5.5771 10.9351 5.52688C10.9664 5.50514 11.0092 5.49231 11.0558 5.47755C11.1153 5.45878 11.1812 5.43653 11.2323 5.39198C11.2346 5.38996 11.2369 5.3879 11.2392 5.38579C11.2578 5.36952 11.3095 5.23117 11.3307 5.17099C11.3358 5.15741 11.3397 5.14781 11.3422 5.14447C11.399 5.06718 11.4619 5.08635 11.5186 5.1171C11.5186 5.1171 11.5186 5.1171 11.5186 5.1171C11.5643 5.1441 11.5991 5.18285 11.6059 5.18529C11.6421 5.1979 11.6749 5.19428 11.7031 5.181C11.7382 5.16445 11.7665 5.13288 11.7891 5.0979C11.815 5.05766 11.8336 5.01292 11.8481 4.9807C11.8559 4.96319 11.8625 4.94944 11.8686 4.94189C11.8858 4.92038 11.9033 4.89981 11.9211 4.87999C11.9487 4.84913 11.9774 4.81979 12.0057 4.79221C12.0354 4.76338 12.0655 4.73579 12.0953 4.70912C12.0953 4.70911 12.0953 4.70911 12.0953 4.70911C12.2713 4.55556 12.4145 4.43387 12.5278 4.32308C12.5465 4.30484 12.5642 4.28705 12.5812 4.26938C12.7198 4.12505 12.638 4.00302 12.734 3.92397C12.7359 3.9224 12.7378 3.92089 12.7399 3.91939C12.8492 3.83906 12.9341 3.80845 13.0084 3.78709C13.1013 3.76076 13.175 3.75111 13.2317 3.7055C13.2676 3.67676 13.2958 3.63442 13.318 3.56616C13.3285 3.53414 13.2939 3.47989 13.3002 3.44634C13.3041 3.42188 13.3351 3.40618 13.4168 3.42735C13.4226 3.42874 13.4572 3.44269 13.4916 3.44977C13.5653 3.44125 13.6543 3.41902 13.7027 3.35632C13.7141 3.34154 13.6957 3.29659 13.7143 3.28498C13.7989 3.23306 13.873 3.22095 13.9566 3.19903C13.9951 3.18902 14.0355 3.17712 14.0806 3.15903C14.1931 3.11375 14.3273 3.06408 14.4668 3.04351C14.5042 3.03796 14.5419 3.03445 14.5793 3.03355C14.687 3.03013 14.827 3.11259 14.8758 3.13348C14.9177 3.15095 14.9593 3.1543 15.0001 3.15271C15.096 3.1488 15.19 3.11798 15.246 3.1765C15.3227 3.26086 15.1564 3.36373 15.3605 3.43373C15.3823 3.30929 15.416 3.18294 15.4458 3.05888C15.4737 3.06264 15.5016 3.06683 15.5293 3.07144C15.7046 3.10056 15.8759 3.14637 16.042 3.20462C16.2042 3.26122 16.3791 3.33785 16.526 3.41339C16.629 3.46547 16.7342 3.52722 16.8287 3.58699C16.84 3.59413 16.8516 3.60146 16.8626 3.60854C16.9153 3.64251 16.8996 3.55049 16.9571 3.58599C17.0248 3.62846 17.0839 3.6733 17.1401 3.71967C17.2232 3.78838 17.2989 3.85996 17.3774 3.92891C17.4351 3.97964 17.4953 4.02972 17.5613 4.07709C17.58 4.0904 17.6002 4.10411 17.6198 4.11669C17.7032 4.17026 17.7956 4.21927 17.8861 4.26921C17.9665 4.31361 18.0462 4.35934 18.1181 4.41067C18.1184 4.42483 18.1203 4.43887 18.1234 4.45283C18.1594 4.51722 18.2073 4.58078 18.2539 4.63554C18.292 4.68014 18.329 4.7187 18.3624 4.75072C18.3933 4.78024 18.4209 4.8042 18.4455 4.82415C18.4697 4.8437 18.4908 4.85936 18.5093 4.873C18.5284 4.88703 18.5449 4.89902 18.5585 4.9104C18.5618 4.9132 18.5653 4.91616 18.5681 4.91881C18.5846 4.93421 18.5784 4.95419 18.5781 4.97326C18.5819 4.98387 18.5874 4.9947 18.5978 5.00596C18.7258 5.13982 18.7232 4.99577 18.7709 4.99586C18.7722 4.99584 18.7736 4.99592 18.7749 4.99611C18.8539 5.00684 18.8897 5.04305 18.9156 5.0929C18.9471 5.15328 18.9631 5.23352 19.0185 5.29883C19.0472 5.33258 19.0865 5.36216 19.1431 5.38055C19.1466 5.38173 19.1645 5.37648 19.1888 5.36767C19.257 5.34411 19.3704 5.28863 19.3876 5.28566C19.3925 5.28494 19.3971 5.28431 19.4014 5.28376C19.5318 5.2654 19.4005 5.34531 19.482 5.3761C19.506 5.38493 19.5303 5.3939 19.5556 5.40269C19.5901 5.41511 19.6201 5.42577 19.6545 5.43517C19.6881 5.44442 19.7233 5.45189 19.7618 5.45667C19.7971 5.46104 19.8349 5.46313 19.8769 5.46219C19.9064 5.46151 19.9381 5.45934 19.9721 5.45537C19.9792 5.4545 19.9876 5.45273 19.9971 5.45037C20.029 5.44232 20.0727 5.42745 20.1206 5.41853C20.1598 5.41124 20.2021 5.40797 20.2431 5.41574C20.3059 5.42378 20.3653 5.43661 20.4192 5.45634C20.4531 5.46882 20.4299 5.51796 20.4574 5.52316C20.643 5.55694 20.7406 5.55413 20.8162 5.53662C20.9374 5.50763 20.9967 5.43815 21.1169 5.41646C21.1593 5.40861 21.2038 5.4095 21.2467 5.41605C21.3959 5.43855 21.5105 5.52865 21.5358 5.55775C21.5362 5.55815 21.5365 5.55854 21.5369 5.55894C21.5779 5.60512 21.5597 5.61156 21.5293 5.60678C21.4975 5.60174 21.4471 5.58393 21.4432 5.58761C21.3835 5.64784 21.446 5.66782 21.5173 5.68297C21.5475 5.68935 21.5787 5.69483 21.6059 5.7021C21.5954 5.85877 21.7112 5.8723 21.6972 5.72731C21.696 5.71135 21.6245 5.71246 21.6059 5.7021C21.6563 5.63951 21.7139 5.60733 21.7696 5.60776C21.8337 5.60811 21.8952 5.65233 21.9359 5.74092C21.9368 5.74287 21.9377 5.74485 21.9386 5.74684C21.97 5.82641 21.9095 5.88717 22.0513 5.90596C22.0513 5.90596 22.0513 5.90596 22.0513 5.90596C22.0528 5.90633 22.0544 5.90672 22.0559 5.9071C22.1903 5.94293 22.1766 5.82195 22.3105 5.84531C22.4057 5.86362 22.4971 5.90152 22.588 5.95289C22.7385 6.03772 22.8785 6.15642 23.0074 6.26316C23.0546 6.30209 23.1006 6.33943 23.1462 6.37312C23.2352 6.43999 23.19 6.32484 23.2526 6.37007C23.3274 6.42496 23.3884 6.48868 23.446 6.55416C23.5163 6.63423 23.5814 6.71663 23.6632 6.79543C23.6769 6.8086 23.695 6.73337 23.737 6.78319C23.7736 6.82682 23.8082 6.87108 23.8409 6.91585C23.949 7.06366 24.0376 7.21683 24.1146 7.37639C24.1884 7.52905 24.259 7.70765 24.3126 7.87168C24.3317 7.92888 24.3546 8.00534 24.3714 8.06869C24.383 8.11205 24.396 8.16074 24.4091 8.21273C24.4348 8.31417 24.4602 8.42773 24.4812 8.53804C24.5023 8.64876 24.5195 8.75768 24.5303 8.85035C24.5346 8.88774 24.5378 8.92155 24.54 8.95323C24.5446 9.01947 24.5468 9.08724 24.5475 9.15681C24.5486 9.2562 24.5467 9.35877 24.5445 9.45975C24.5422 9.56147 24.5397 9.6635 24.5394 9.76068C24.5427 9.84545 24.5455 9.91798 24.5483 9.9788C24.5511 10.0426 24.554 10.094 24.5573 10.1366C24.5609 10.1823 24.565 10.2181 24.5702 10.248C24.5716 10.256 24.5731 10.2639 24.5746 10.2711C24.5803 10.2973 24.5865 10.3144 24.5933 10.3274C24.6163 10.3696 24.6459 10.3688 24.6756 10.3775C24.6878 10.3807 24.7001 10.3852 24.7116 10.3915C24.7233 10.398 24.7317 10.4063 24.7376 10.4169C24.7581 10.4734 24.7611 10.525 24.7611 10.5868C24.7603 10.6573 24.752 10.7268 24.7454 10.773C24.7421 10.7965 24.739 10.8138 24.7373 10.8217C24.7372 10.8222 24.7281 10.803 24.7169 10.7827C24.6974 10.7476 24.6713 10.7083 24.6688 10.7668C24.658 10.7826 24.6558 10.7941 24.6588 10.8024C24.669 10.8303 24.7367 10.8205 24.7373 10.8217C24.7351 10.8326 24.7485 10.8877 24.7711 10.9527C24.79 11.0075 24.8157 11.0691 24.8398 11.1179C24.8589 11.1568 24.8768 11.1877 24.8877 11.2012C24.91 11.2286 24.9521 11.1834 24.9626 11.1978C24.9721 11.2109 24.9817 11.2239 24.9913 11.2367C25.0276 11.2854 25.059 11.3245 25.0986 11.374C25.1201 11.4003 25.1392 11.4221 25.1618 11.448C25.1838 11.4731 25.2071 11.4991 25.2314 11.5262C25.2557 11.5532 25.281 11.581 25.3068 11.6096C25.3326 11.6381 25.3588 11.6673 25.3854 11.697C25.4116 11.7264 25.4385 11.7568 25.4649 11.787C25.4914 11.8173 25.5181 11.8481 25.5445 11.8791C25.5445 11.8791 25.5445 11.8791 25.5445 11.8791C25.6907 12.0506 25.8146 12.1985 25.9174 12.3261C25.9867 12.4121 26.0464 12.4887 26.0994 12.5598C26.1057 12.5694 26.0441 12.5974 26.0594 12.6194C26.08 12.6493 26.0989 12.6757 26.1177 12.7008C26.1954 12.8046 26.261 12.8716 26.3242 12.9274C26.393 12.9881 26.4581 13.0347 26.5186 13.0871C26.5261 13.0935 26.5335 13.1001 26.5409 13.1068C26.5932 13.1546 26.63 13.1996 26.6521 13.245C26.6847 13.3118 26.6874 13.3831 26.6491 13.4443C26.6482 13.4506 26.6471 13.4569 26.6459 13.4633C26.7176 13.5876 26.7754 13.7996 26.7959 13.958C26.8045 14.0177 26.8098 14.0729 26.8133 14.1187C26.8245 14.2884 26.9509 14.287 26.9571 14.3017C26.9776 14.3559 26.9941 14.4082 27.0074 14.4591C27.0577 14.6532 27.0635 14.8239 27.0526 15C27.0418 15.1635 27.0166 15.3323 26.9814 15.5371C26.9811 15.5386 26.9809 15.5401 26.9806 15.5416C26.9585 15.6713 26.9226 15.8723 26.8701 16.0647C26.8303 16.2145 26.7793 16.3646 26.7385 16.4719C26.7235 16.5118 26.7083 16.5458 26.6931 16.5767C26.6931 16.5767 26.6931 16.5767 26.6931 16.5767C26.6358 16.6924 26.5704 16.7814 26.5107 16.8909C26.5039 16.9032 26.497 16.916 26.4904 16.9289C26.4787 16.9512 26.5401 16.9613 26.5377 16.9689C26.477 17.1795 26.419 17.0168 26.3751 17.0371C26.3206 17.0607 26.2746 17.0797 26.2326 17.1041C26.1552 17.1484 26.0927 17.2101 26.0208 17.3365C26.0176 17.3421 26.0144 17.3479 26.0111 17.3539C25.9867 17.3985 26.0311 17.6153 25.9945 17.7127C25.9916 17.7204 25.9883 17.7274 25.9843 17.7335C25.9138 17.8403 25.8899 17.7575 25.8179 17.8695C25.8124 17.8779 25.8402 17.9011 25.8061 17.9499C25.8025 17.9551 25.7981 17.9606 25.7928 17.9665C25.7322 18.0347 25.6691 18.1039 25.6057 18.1731C25.5509 18.2352 25.5026 18.2895 25.4614 18.3358C25.4205 18.3817 25.3866 18.4198 25.358 18.4521C25.3295 18.4842 25.3064 18.5105 25.2866 18.5332C25.267 18.5558 25.2508 18.5747 25.2367 18.5917C25.2227 18.6084 25.2107 18.6233 25.2002 18.6368C25.1893 18.6509 25.1822 18.6601 25.1718 18.6751C25.1436 18.7166 25.1254 18.7456 25.1025 18.7848C25.0828 18.8189 25.1555 18.8121 25.1449 18.8521C25.1439 18.8557 25.1424 18.8595 25.1401 18.8639C25.117 18.9072 25.0945 18.9518 25.0728 18.9972C25.0497 19.0455 25.0276 19.0948 25.0065 19.1448C24.9856 19.1944 24.9657 19.2447 24.9468 19.2952C24.9277 19.3461 24.9098 19.3973 24.8928 19.4483C24.8747 19.5036 24.8606 19.5455 24.8435 19.6041C24.8361 19.6293 24.8309 19.6446 24.8242 19.6683C24.8213 19.6782 24.8179 19.6855 24.814 19.6909C24.7935 19.7197 24.7611 19.6864 24.7472 19.6972C24.7195 19.7194 24.7079 19.7488 24.7058 19.7799C24.7033 19.8184 24.7152 19.8598 24.7286 19.8946C24.7436 19.9336 24.7604 19.9646 24.7605 19.9744C24.7607 19.988 24.7608 20.0011 24.7608 20.0148C24.761 20.0548 24.7605 20.0953 24.7595 20.1349C24.7584 20.1756 24.7568 20.2164 24.7546 20.2565C24.7546 20.2565 24.7546 20.2565 24.7546 20.2565C24.7388 20.4871 24.7226 20.6772 24.7057 20.8373C24.6883 21.0022 24.6702 21.1368 24.6518 21.2543C24.6336 21.3706 24.6149 21.471 24.5972 21.5613C24.58 21.6494 24.5636 21.7281 24.5489 21.8032C24.5351 21.8738 24.5227 21.9414 24.5128 22.0075C24.5125 22.0094 24.5122 22.0114 24.512 22.0133C24.5111 22.0257 24.5458 22.1447 24.5253 22.2035C24.5058 22.2603 24.4723 22.3134 24.4217 22.3428C24.4106 22.3504 24.2428 22.4418 24.2617 22.5869C24.2624 22.5966 24.3595 22.5427 24.2818 22.6816C24.2774 22.6893 24.273 22.6972 24.2686 22.7054C24.1992 22.8352 24.1089 23.039 23.9537 23.1676C23.9417 23.1775 23.9295 23.187 23.9169 23.196C23.8566 23.2396 23.6697 23.2855 23.6013 23.4949C23.6001 23.499 23.5942 23.5337 23.5806 23.5804C23.5495 23.6938 23.4591 23.8793 23.3282 23.8481C23.3001 23.8408 23.2277 23.7286 23.1076 23.8723C23.0971 23.8846 23.0862 23.8987 23.0746 23.9148C23.0461 23.9542 23.1357 23.9347 23.0477 24.0229C22.9599 24.1096 22.8293 24.1792 22.6999 24.2579C22.628 24.3018 22.5568 24.3486 22.4897 24.4062C22.4628 24.4312 22.3465 24.5754 22.2216 24.576C22.2216 24.576 22.2216 24.576 22.2216 24.576C22.206 24.5765 22.1893 24.5754 22.1716 24.5722C22.1448 24.5675 22.1719 24.5034 22.0925 24.5226C21.9979 24.5447 21.9121 24.5634 21.8253 24.5813C21.7081 24.6052 21.595 24.6259 21.4851 24.6416C21.3759 24.6572 21.2685 24.6679 21.1646 24.6702C21.139 24.6708 21.1145 24.6708 21.0893 24.6704C20.9806 24.6681 21.0271 24.5779 20.9144 24.5654C20.8945 24.5631 20.87 24.5612 20.8444 24.5597C20.7532 24.5547 20.6337 24.5563 20.5429 24.5752C20.516 24.5808 20.4905 24.5881 20.4703 24.5971C20.3595 24.6451 20.4948 24.7708 20.3258 24.7953C20.3043 24.7984 20.2826 24.8014 20.2606 24.8044C20.1778 24.8132 20.1056 24.8208 20.0446 24.8274C19.9834 24.834 19.9331 24.8396 19.8908 24.8445C19.8486 24.8493 19.8144 24.8535 19.7853 24.8571C19.7562 24.8608 19.7323 24.8639 19.7113 24.8666C19.6905 24.8693 19.6724 24.8717 19.6562 24.8737C19.6393 24.8759 19.6292 24.8769 19.6113 24.8793C19.551 24.8896 19.5086 24.8972 19.4529 24.9092C19.4002 24.9206 19.3478 24.9333 19.2957 24.9477C19.2436 24.9621 19.1918 24.978 19.1405 24.9957C19.0892 25.0134 19.0383 25.0328 18.9881 25.054C18.938 25.0752 18.8884 25.0983 18.8398 25.1232C18.7887 25.1498 18.7494 25.1713 18.6969 25.2039C18.6969 25.2039 18.6969 25.2039 18.6969 25.2039C18.6696 25.2209 18.6478 25.2351 18.6209 25.2541C18.6099 25.2618 18.5987 25.2699 18.5873 25.2783C18.5514 25.3051 18.5546 25.3176 18.5549 25.3326C18.5547 25.3484 18.5518 25.3664 18.4946 25.4142C18.4918 25.4166 18.4887 25.4192 18.4858 25.4216C18.4582 25.4449 18.4287 25.4702 18.3977 25.4972C18.369 25.522 18.3386 25.5487 18.3077 25.5759C18.2782 25.6018 18.2477 25.6288 18.2164 25.6564C18.0521 25.7986 17.9034 25.9276 17.7748 26.0374C17.6513 26.1428 17.5447 26.2317 17.4503 26.3073C17.3566 26.3823 17.2737 26.4451 17.1991 26.4977C17.1211 26.5526 17.0513 26.597 16.9872 26.6334C16.9171 26.6731 16.8534 26.7033 16.796 26.7251C16.7362 26.7478 16.6746 26.7655 16.6324 26.7685C16.6257 26.7691 16.6194 26.7695 16.6135 26.7697C16.6135 26.7697 16.6135 26.7697 16.6135 26.7697C16.2134 26.8622 16.6956 26.5828 16.359 26.6941C16.2382 26.732 16.145 26.841 16.0774 26.911C16.0487 26.9413 16.0267 26.9639 16.0143 26.969C15.8511 27.0367 15.6987 27.0682 15.5527 27.0849C15.3677 27.1056 15.193 27.1035 15.0001 27.1087C14.9733 27.1094 14.9461 27.1102 14.9184 27.1111C14.8386 27.1134 14.9151 27.1799 14.8463 27.1806C14.7114 27.1815 14.5733 27.1618 14.44 27.1359C14.34 27.1165 14.2425 27.0937 14.1485 27.0742C14.0502 27.0532 14.056 27.1051 13.9664 27.0768C13.9373 27.0675 13.909 27.0577 13.8811 27.0474C13.7101 26.9846 13.5357 26.8941 13.3971 26.7843C13.3837 26.7738 13.4981 26.7701 13.4114 26.7182C13.4037 26.7136 13.3944 26.7085 13.3828 26.7025C13.2851 26.653 13.1913 26.5907 13.0999 26.525C13.0067 26.458 12.9167 26.3882 12.826 26.3259C12.7728 26.2894 12.7197 26.2557 12.6648 26.226C12.6168 26.2001 12.5688 26.2304 12.5168 26.2022C12.4911 26.1881 12.4655 26.1609 12.4392 26.1065C12.4225 26.0716 12.5419 25.9966 12.3201 25.9628C12.3187 25.9626 12.3169 25.9622 12.3147 25.9618C12.2775 25.9542 12.131 25.9158 12.0182 25.8438C11.9555 25.8037 11.9033 25.7536 11.8853 25.6927C11.8779 25.6688 11.8732 25.6191 11.8585 25.5687C11.8155 25.4984 11.7701 25.4322 11.7211 25.3943C11.7161 25.3905 11.7111 25.3869 11.7059 25.3836C11.6912 25.3748 11.7044 25.4646 11.6213 25.4022C11.5962 25.3834 11.5738 25.3668 11.5533 25.3516C11.5188 25.3262 11.4904 25.3055 11.4658 25.288C11.4415 25.2706 11.4211 25.2564 11.4029 25.244C11.385 25.2319 11.3691 25.2214 11.3546 25.2123C11.3396 25.2029 11.3298 25.1973 11.314 25.1882C11.2612 25.1555 11.2211 25.1338 11.1691 25.1083C11.1588 25.1033 11.1484 25.0985 11.1379 25.0938C11.0853 25.0706 11.1294 25.1656 11.053 25.1306C11.0319 25.1213 11.0104 25.1116 10.9885 25.1019C10.9414 25.081 10.8923 25.0594 10.8421 25.0383C10.7936 25.0179 10.7439 24.9978 10.694 24.9788C10.6437 24.9596 10.5931 24.9414 10.5433 24.9247C10.4874 24.9064 10.4465 24.8928 10.3894 24.8771C10.3783 24.874 10.3694 24.8715 10.3617 24.8692C10.288 24.8495 10.3478 24.8072 10.3439 24.8008C10.3346 24.7884 10.3251 24.7791 10.3154 24.7723C10.2793 24.7469 10.2428 24.7565 10.2127 24.773C10.1819 24.7896 10.1572 24.8133 10.1402 24.8149C10.1258 24.8161 10.1116 24.8169 10.0973 24.8175C10.0578 24.8191 10.019 24.8185 9.98069 24.8163C9.94059 24.814 9.90059 24.8098 9.86161 24.8049C9.82131 24.7997 9.7811 24.7936 9.74098 24.7876C9.53674 24.765 9.35804 24.7446 9.19326 24.7367C9.17938 24.736 9.16853 24.7364 9.16003 24.7377C9.1017 24.7468 9.15334 24.7969 9.13429 24.7998C8.9184 24.8316 9.08286 24.7408 8.95757 24.7173C8.88143 24.7024 8.80956 24.6894 8.74293 24.6778C8.6272 24.6577 8.52449 24.6415 8.43404 24.6274C8.34549 24.6135 8.2683 24.6016 8.19838 24.5897C8.19463 24.589 8.1913 24.5887 8.18832 24.5886C8.13858 24.5872 8.18812 24.6603 8.13189 24.6494C8.07257 24.638 8.01736 24.6254 7.96477 24.6114C7.90196 24.5949 7.83174 24.5724 7.78605 24.5552C7.78605 24.5552 7.78605 24.5552 7.78605 24.5552C7.62319 24.4973 7.42565 24.4072 7.26951 24.316C7.11842 24.229 6.97635 24.1303 6.84642 24.0231C6.82489 24.0053 6.8151 23.9918 6.81204 23.9813C6.80359 23.9521 6.84725 23.9461 6.83964 23.9295C6.77103 23.7766 6.53638 23.7217 6.49059 23.6922C6.44804 23.6667 6.41326 23.6415 6.38358 23.6166C6.27204 23.5217 6.23113 23.4363 6.12358 23.3158C6.08758 23.275 6.05214 23.2328 6.01747 23.1891C5.90403 23.0464 5.79865 22.8883 5.70607 22.719C5.61955 22.5627 5.53301 22.3664 5.47659 22.2029C5.43452 22.0839 5.39915 21.9514 5.3749 21.8348C5.34971 21.7149 5.33208 21.6004 5.31806 21.4908C5.30392 21.3796 5.29341 21.272 5.2847 21.1692C5.27563 21.0622 5.26846 20.9595 5.26205 20.8601C5.25534 20.7557 5.24946 20.6543 5.24396 20.5575C5.24265 20.5345 5.24126 20.5103 5.24002 20.488C5.23556 20.4095 5.23154 20.3337 5.22762 20.258C5.2221 20.1742 5.21753 20.102 5.21367 20.0411C5.20976 19.9791 5.20657 19.9285 5.20383 19.8861C5.20105 19.8431 5.19873 19.8085 5.19668 19.779C5.19461 19.7491 5.19282 19.7246 5.19117 19.7031C5.18953 19.6815 5.188 19.6627 5.18658 19.6459C5.18501 19.6283 5.1844 19.6171 5.18229 19.599C5.17246 19.5376 5.1644 19.4929 5.15186 19.4365C5.13983 19.3824 5.12601 19.3289 5.11036 19.276C5.09465 19.2228 5.0771 19.1702 5.05767 19.1183C5.03826 19.0664 5.01697 19.0151 4.99375 18.9645C4.97067 18.9142 4.94568 18.8645 4.91869 18.8155C4.8905 18.7647 4.86688 18.7248 4.8327 18.6723C4.8327 18.6723 4.8327 18.6723 4.8327 18.6723C4.81487 18.645 4.7995 18.6229 4.77966 18.5958C4.76067 18.5699 4.73991 18.543 4.71751 18.5149C4.69537 18.4871 4.67179 18.4584 4.64707 18.4289C4.62274 18.3998 4.59746 18.3702 4.57133 18.3398C4.55276 18.3183 4.53401 18.2967 4.51479 18.2747C4.4817 18.2367 4.46688 18.2928 4.44294 18.2916C4.43788 18.2914 4.43243 18.2886 4.4262 18.2817C4.4034 18.2562 4.38048 18.2305 4.35757 18.2046C4.20952 18.0337 4.08358 17.8873 3.97787 17.762C3.8717 17.6361 3.78474 17.5301 3.71051 17.4361C3.63658 17.3426 3.57452 17.2602 3.52097 17.1855C3.46697 17.1102 3.42122 17.0423 3.38032 16.9783C3.33961 16.9146 3.30366 16.8546 3.27136 16.7979C3.23951 16.7424 3.20585 16.6789 3.18327 16.6359C3.18327 16.6359 3.18327 16.6359 3.18327 16.6359C3.15804 16.5855 3.13228 16.5317 3.10606 16.4732C3.07733 16.4077 3.05587 16.5301 3.00746 16.423C2.96733 16.3327 2.93175 16.2377 2.90101 16.1349C2.8567 15.9875 2.82626 15.8316 2.81407 15.6947C2.80464 15.5822 2.88612 15.7203 2.87625 15.6084C2.87494 15.592 2.87365 15.5755 2.87241 15.559C2.85856 15.3767 2.84945 15.1875 2.84732 15C2.84655 14.9357 2.84655 14.8715 2.84725 14.8079C2.84928 14.6943 2.77111 14.8623 2.78002 14.7133C2.78646 14.619 2.79633 14.525 2.80967 14.4317C2.83663 14.243 2.87777 14.0568 2.9332 13.875C2.98572 13.7 3.06565 13.4987 3.14258 13.3446C3.14258 13.3446 3.14258 13.3446 3.14258 13.3446C3.19853 13.2301 3.26905 13.1107 3.33641 13.0111C3.40491 12.9093 3.47543 12.8167 3.54621 12.7299C3.61647 12.6439 3.68793 12.5626 3.75915 12.4853C3.83066 12.4077 3.90222 12.3338 3.97487 12.2614C4.00684 12.2296 4.03847 12.1987 4.07092 12.1673C4.10497 12.1345 4.2016 12.1608 4.26881 12.1136C4.28461 12.1026 4.29931 12.0868 4.31054 12.0658C4.28742 12.0341 4.25293 12.0054 4.22449 11.9759C4.27214 11.9178 4.31916 11.8609 4.367 11.8035C4.367 11.8035 4.367 11.8035 4.367 11.8035C4.42069 11.7398 4.46741 11.6843 4.50686 11.6372C4.54642 11.59 4.57881 11.5509 4.60585 11.5179C4.63292 11.4848 4.65461 11.4578 4.67297 11.4346C4.69126 11.4114 4.70614 11.3921 4.7191 11.3749C4.73192 11.3579 4.74293 11.343 4.75267 11.3295C4.76279 11.3155 4.76901 11.3068 4.77932 11.292C4.81379 11.241 4.83743 11.2038 4.86687 11.1545C4.89465 11.1078 4.921 11.0602 4.94584 11.0119C4.97068 10.9635 4.99403 10.9143 5.0158 10.8644C5.03758 10.8145 5.05778 10.7638 5.07636 10.7125C5.09494 10.6613 5.11189 10.6094 5.12714 10.5569C5.14304 10.5016 5.15446 10.4584 5.16779 10.3981C5.16779 10.3981 5.16779 10.3981 5.16779 10.3981C5.17469 10.3668 5.17974 10.3414 5.18529 10.309C5.19062 10.2778 5.19555 10.2446 5.20023 10.2096C5.2049 10.1745 5.20931 10.1379 5.21357 10.1C5.21782 10.0623 5.22191 10.0236 5.22595 9.98411C5.22994 9.94507 5.23392 9.90481 5.23781 9.86492C5.24171 9.82495 5.24561 9.78436 5.24948 9.74381C5.24948 9.74381 5.24948 9.74381 5.24948 9.74381C5.26894 9.51911 5.28578 9.32669 5.30135 9.16332C5.31688 8.99997 5.33126 8.86391 5.34552 8.74544C5.35005 8.7078 5.35462 8.67141 5.3592 8.6367C5.3665 8.58221 5.28207 8.66666 5.29599 8.562C5.3026 8.51365 5.30923 8.46791 5.31587 8.42495C5.33012 8.3327 5.34459 8.25176 5.36026 8.17714C5.37593 8.10252 5.39291 8.03409 5.41145 7.97108C5.42955 7.90912 5.45339 7.84052 5.4726 7.79571C5.5329 7.63662 5.6254 7.44409 5.72362 7.29033C5.76938 7.21755 5.81879 7.14665 5.87187 7.0781C5.91592 7.02315 6.00187 7.11988 6.0994 6.94571C6.10342 6.93871 6.11487 6.92008 6.13087 6.89479C6.18374 6.80817 6.29663 6.64979 6.32264 6.59092C6.32698 6.58004 6.24421 6.58178 6.31047 6.50686C6.34135 6.47254 6.37311 6.43875 6.40568 6.40556C6.53492 6.27384 6.67732 6.1516 6.82962 6.04247C6.98103 5.93392 7.14217 5.83838 7.30885 5.75814C7.45979 5.68518 7.63341 5.61786 7.78758 5.57327C7.86218 5.55218 7.81768 5.62309 7.85023 5.62648C7.85405 5.62686 7.85894 5.62634 7.86533 5.62465C7.97806 5.59396 8.09312 5.56635 8.20244 5.5437C8.31568 5.52017 8.42605 5.50068 8.53328 5.48488C8.64094 5.46906 8.74676 5.45684 8.84834 5.44963C8.95463 5.44208 9.05723 5.43985 9.15627 5.44522C9.16156 5.44551 9.16685 5.44582 9.17215 5.44616C9.42338 5.46274 9.34804 5.5756 9.47742 5.6711C9.4805 5.67339 9.4837 5.67568 9.48703 5.67796C9.50779 5.69157 9.66267 5.68155 9.67593 5.74375C9.70918 5.90012 9.64777 6.07917 9.69211 6.24513C9.70198 6.28083 9.9066 6.22518 9.79012 6.32271C9.78242 6.32922 9.63387 6.37038 9.59948 6.40311C9.5756 6.42574 9.62707 6.48589 9.57655 6.51648C9.5671 6.52218 9.55729 6.52512 9.54709 6.52637C9.50254 6.5318 9.44902 6.50524 9.38098 6.5363C9.31723 6.56565 9.32821 6.61264 9.2622 6.64393C9.24184 6.65383 9.21283 6.66223 9.17287 6.66801ZM26.7879 14.875C26.7301 15.0246 26.9543 15.0497 26.8975 14.8812C26.8944 14.873 26.7906 14.8671 26.7879 14.875ZM16.3364 3.52253C16.3696 3.5627 16.403 3.58881 16.4349 3.60402C16.537 3.65379 16.6389 3.59956 16.5629 3.49299C16.5467 3.47081 16.5287 3.45533 16.5107 3.44551C16.4183 3.39517 16.2994 3.47969 16.3364 3.52253ZM14.3717 3.37826C14.4388 3.38811 14.4842 3.37046 14.5114 3.34141C14.5559 3.29385 14.55 3.21443 14.4885 3.18823C14.458 3.17533 14.4136 3.17594 14.358 3.2019C14.3439 3.20824 14.3579 3.37634 14.3717 3.37826ZM8.86772 5.76486C8.86818 5.76544 8.87348 5.7655 8.88165 5.7652C8.91271 5.764 8.9839 5.75824 8.98556 5.75577C9.02327 5.70133 8.92029 5.69365 8.87677 5.71892C8.85898 5.72924 8.85153 5.74492 8.86772 5.76486ZM13.0307 4.08601C13.0811 4.08148 13.1406 4.02436 13.1526 3.9853C13.1599 3.96257 13.1532 3.94402 13.1217 3.94282C13.1216 3.94281 13.1215 3.94281 13.1214 3.94281C13.055 3.93672 12.9329 4.09374 13.0307 4.08601ZM23.9928 21.7003C23.9892 21.7016 23.9756 21.7474 23.9941 21.7508C24.0541 21.7625 24.0528 21.6902 23.9928 21.7003ZM10.1812 5.75747C10.222 5.75449 10.2559 5.75348 10.2854 5.75404C10.3218 5.75473 10.3516 5.75783 10.3777 5.76266C10.4084 5.76844 10.4341 5.77666 10.4559 5.78655C10.488 5.80111 10.5129 5.81911 10.5307 5.83829C10.5843 5.86608 10.5979 5.90144 10.5496 5.93436C10.5391 5.9479 10.5194 5.95955 10.4866 5.96743C10.468 5.97187 10.4452 5.97511 10.4155 5.97687C10.4124 5.97705 10.4099 5.97697 10.4079 5.97666C10.3997 5.97543 10.4005 5.97041 10.406 5.96311C10.4307 5.93456 10.5055 5.87185 10.4511 5.86271C10.4311 5.85941 10.4119 5.8605 10.3921 5.86463C10.3635 5.8706 10.3344 5.8828 10.3018 5.89689C10.2677 5.91158 10.2301 5.92827 10.1842 5.94205C10.1399 5.95533 10.0881 5.96589 10.022 5.96952C9.96399 5.97272 9.89475 5.97061 9.80889 5.96054C9.7631 5.95537 9.90645 5.89419 10.0114 5.84167C10.0836 5.80627 10.1408 5.77438 10.1671 5.76224C10.1742 5.75905 10.1793 5.7572 10.1821 5.75702C10.1818 5.75717 10.1815 5.75732 10.1812 5.75747ZM26.5205 14.9646C26.5194 14.9656 26.5186 14.9809 26.5178 15C26.5166 15.0337 26.515 15.0794 26.5168 15.0811C26.5592 15.1195 26.5807 15.0498 26.5718 15C26.5663 14.9684 26.5491 14.9458 26.5205 14.9646ZM20.6614 23.9842C20.6579 23.9808 20.57 23.9846 20.4952 23.9895C20.4402 23.9931 20.3937 23.9972 20.39 24C20.3318 24.0586 20.4125 24.0838 20.5028 24.0829C20.6083 24.0818 20.728 24.0446 20.6614 23.9842ZM23.7729 8.21863C23.7311 8.17974 23.6999 8.14268 23.6778 8.09589C23.6467 8.02986 23.6399 7.9621 23.6674 7.89337C23.6899 7.95262 23.7122 8.01322 23.7329 8.07643C23.7489 8.12546 23.7613 8.16953 23.7729 8.21863Z" fill="#40AE61"/>
<path d="M10.625 15.625L13.125 18.125L19.375 11.875" stroke="white" stroke-width="1.5" stroke-linecap="round" stroke-linejoin="round"/>
</svg>
