<svg width="51" height="50" viewBox="0 0 51 50" fill="none" xmlns="http://www.w3.org/2000/svg">
<circle cx="33.8337" cy="16.6667" r="4.16667" stroke="#777777" stroke-width="2"/>
<path d="M4.66699 26.042L8.31613 22.849C10.2146 21.1879 13.0759 21.2831 14.8597 23.0669L23.7966 32.0038C25.2283 33.4356 27.4821 33.6308 29.1387 32.4666L29.7599 32.03C32.1438 30.3546 35.3689 30.5487 37.5346 32.4979L44.2503 38.542" stroke="#777777" stroke-width="2" stroke-linecap="round"/>
<path d="M46.3336 25C46.3336 34.8209 46.3336 39.7313 43.2827 42.7823C40.2317 45.8333 35.3212 45.8333 25.5003 45.8333C15.6794 45.8333 10.7689 45.8333 7.71796 42.7823C4.66699 39.7313 4.66699 34.8209 4.66699 25C4.66699 15.179 4.66699 10.2686 7.71796 7.2176C10.7689 4.16663 15.6794 4.16663 25.5003 4.16663C35.3212 4.16663 40.2317 4.16663 43.2827 7.2176C45.3113 9.24622 45.9911 12.0969 46.2188 16.6666" stroke="#777777" stroke-width="2" stroke-linecap="round"/>
</svg>
