<svg width="24" height="24" viewBox="0 0 24 24" fill="none" xmlns="http://www.w3.org/2000/svg">
<g clip-path="url(#clip0_124_6493)">
<path d="M21.221 7.40335L14.9519 6.82192L12.4616 1.03928C12.2872 0.634369 11.7131 0.634369 11.5388 1.03928L9.04853 6.82187L2.77942 7.40335C2.34044 7.44404 2.16306 7.99004 2.49423 8.28099L7.2243 12.4363L5.84003 18.5783C5.74309 19.0083 6.20758 19.3457 6.58661 19.1207L12.0002 15.9062L17.4138 19.1207C17.7929 19.3458 18.2573 19.0083 18.1604 18.5783L16.7761 12.4363L21.5062 8.28099C21.8373 7.99004 21.6599 7.44404 21.221 7.40335Z" fill="#FFDC64"/>
<path d="M5.59114 0.84014C5.91073 1.28405 6.81279 3.19045 7.32851 4.30148C7.4096 4.47614 7.19046 4.63392 7.05054 4.50159C6.16053 3.66009 4.63873 2.19984 4.31914 1.75589C4.06624 1.40466 4.14598 0.914906 4.49726 0.662015C4.84849 0.409125 5.33824 0.488906 5.59114 0.84014ZM18.4088 0.84014C18.0892 1.28405 17.1872 3.19045 16.6714 4.30148C16.5904 4.47614 16.8095 4.63392 16.9494 4.50159C17.8394 3.66009 19.3612 2.1998 19.6808 1.75589C19.9337 1.40466 19.854 0.914906 19.5027 0.662015C19.1515 0.409125 18.6617 0.488906 18.4088 0.84014ZM23.4591 13.8576C22.9391 13.688 20.8487 13.4078 19.6335 13.2541C19.4425 13.2299 19.3588 13.4866 19.5273 13.5797C20.5995 14.172 22.4531 15.1781 22.9731 15.3477C23.3846 15.4819 23.8269 15.2572 23.9611 14.8456C24.0953 14.4341 23.8706 13.9918 23.4591 13.8576ZM0.540869 13.8576C1.0609 13.688 3.15129 13.4078 4.36643 13.2541C4.55745 13.2299 4.64117 13.4866 4.47265 13.5797C3.40048 14.172 1.5469 15.1781 1.02687 15.3477C0.615401 15.4819 0.173041 15.2572 0.0388381 14.8456C-0.095365 14.4341 0.129401 13.9918 0.540869 13.8576ZM11.2403 22.702C11.2403 22.155 11.6221 20.0808 11.8527 18.8779C11.889 18.6888 12.159 18.6888 12.1953 18.8779C12.4259 20.0808 12.8077 22.155 12.8077 22.702C12.8077 23.1348 12.4568 23.4857 12.024 23.4857C11.5912 23.4857 11.2403 23.1348 11.2403 22.702Z" fill="#FFF082"/>
<path d="M13.3671 3.14209L12.4615 1.03928C12.2872 0.634369 11.7131 0.634369 11.5388 1.03928L9.04848 6.82187L2.77942 7.40335C2.34044 7.44404 2.16306 7.99004 2.49423 8.28099L7.2243 12.4363L5.84003 18.5783C5.74309 19.0083 6.20758 19.3457 6.58661 19.1207L7.30712 18.6929C8.48833 11.0466 11.809 5.43371 13.3671 3.14209Z" fill="#FFC850"/>
</g>
<defs>
<clipPath id="clip0_124_6493">
<rect width="24" height="24" fill="white"/>
</clipPath>
</defs>
</svg>
