<svg width="24" height="24" viewBox="0 0 24 24" fill="none" xmlns="http://www.w3.org/2000/svg">
<path d="M12 0C7.15884 0 3.23438 3.92691 3.23438 8.77036C3.23438 14.1025 6.88791 15.359 8.80477 18.6282C10.5893 21.6705 10.5908 24 12 24C13.4614 24 13.3692 21.8299 15.1952 18.6283C17.0208 15.4261 20.7656 14.1025 20.7656 8.77036C20.7656 3.92691 16.8412 0 12 0ZM12 12.1313C10.1889 12.1313 8.72072 10.6624 8.72072 8.85056C8.72072 7.94414 9.08775 7.1242 9.68133 6.53025C10.2749 5.93677 11.0945 5.56927 12 5.56927C13.8111 5.56927 15.2788 7.03823 15.2788 8.85056C15.2788 10.6624 13.8111 12.1313 12 12.1313Z" fill="#4CAF50"/>
<path d="M11.9998 0C11.7559 0 11.5144 0.0104531 11.2754 0.03C15.7775 0.398625 19.3166 4.17098 19.3166 8.77036C19.3166 14.1025 15.5717 15.4261 13.7462 18.6282C12.2999 21.164 12.0568 23.0525 11.2922 23.7284C11.4883 23.9049 11.7154 24 11.9998 24C13.4613 24 13.369 21.8299 15.1951 18.6283C17.0206 15.4261 20.7655 14.1025 20.7655 8.77036C20.7655 3.92691 16.841 0 11.9998 0Z" fill="#43A047"/>
<path d="M9.68119 6.53034L3.91809 12.2966C3.49655 11.336 3.23438 10.1996 3.23438 8.7704C3.23438 6.36867 4.19934 4.19277 5.76206 2.60901L9.68119 6.53034Z" fill="#F44336"/>
<path d="M14.3415 11.147C14.9213 10.5552 15.2789 9.7446 15.2789 8.85046C15.2789 7.03813 13.8107 5.56921 12 5.56921C11.0943 5.56921 10.2746 5.93657 9.68115 6.53034L15.4866 0.72168C17.5618 1.62238 19.2197 3.30304 20.0922 5.39399L14.3417 11.1477L14.3415 11.147Z" fill="#42A5F5"/>
<path d="M15.4869 0.72168L14.9976 1.21134C16.9445 2.36015 18.409 4.24007 19.0132 6.4739L20.0925 5.39399C19.22 3.30299 17.5621 1.62238 15.4869 0.72168Z" fill="#2196F3"/>
<path d="M14.3416 11.1477L8.01222 17.4805C6.63606 15.746 4.87042 14.4709 3.91797 12.2966L9.68106 6.5304C9.08762 7.12416 8.72045 7.94433 8.72045 8.85052C8.72045 10.6623 10.1886 12.1312 11.9999 12.1312C12.917 12.1312 13.7463 11.7544 14.3414 11.147L14.3416 11.1477Z" fill="#FFC107"/>
<path d="M15.4868 0.721687L9.68133 6.53039L5.76221 2.60911C7.35164 0.998156 9.5595 0 12.0002 0C13.2393 0 14.4186 0.257437 15.4868 0.721687Z" fill="#1E88E5"/>
<path d="M11.9999 0C11.756 0 11.5145 0.0104062 11.2755 0.03L11.2754 0.0300469C12.5894 0.137025 13.862 0.540942 14.9972 1.21134L15.4866 0.721688C14.4183 0.257438 13.239 0 11.9999 0Z" fill="#1976D2"/>
</svg>
