<svg width="25" height="24" viewBox="0 0 25 24" fill="none" xmlns="http://www.w3.org/2000/svg">
<path d="M3.32303 15.4643L4.0194 15.2429L3.32303 15.4643ZM2.26437 9.45481L2.96826 9.65099L2.26437 9.45481ZM6.68508 4.8893L6.24946 4.30263H6.24946L6.68508 4.8893ZM2.37237 9.11512L3.06031 9.36146L2.37237 9.11512ZM6.20554 21.172L5.79188 21.7743H5.79188L6.20554 21.172ZM5.9228 20.962L5.46585 21.5322L5.9228 20.962ZM20.927 15.4643L20.2306 15.2429L20.927 15.4643ZM18.3272 20.962L18.7842 21.5322L18.3272 20.962ZM18.0445 21.172L18.4581 21.7743L18.0445 21.172ZM17.5649 4.8893L18.0005 4.30263L17.5649 4.8893ZM21.8776 9.11512L21.1897 9.36146L21.8776 9.11512ZM21.9856 9.45481L21.2817 9.65099L21.9856 9.45481ZM12.2997 2.00327L12.2724 2.73348L12.2997 2.00327ZM11.9503 2.00327L11.9776 2.73348L11.9503 2.00327ZM10.2184 16.6822C9.81481 16.6822 9.48766 17.0093 9.48766 17.4129C9.48766 17.8164 9.81481 18.1436 10.2184 18.1436V16.6822ZM14.0316 18.1436C14.4352 18.1436 14.7623 17.8164 14.7623 17.4129C14.7623 17.0093 14.4352 16.6822 14.0316 16.6822V18.1436ZM3.32303 15.4643L4.0194 15.2429C3.52915 13.7009 3.17961 12.5983 2.99616 11.7029C2.81605 10.8239 2.81181 10.2123 2.96826 9.65099L2.26437 9.45481L1.56048 9.25863C1.31897 10.1252 1.35852 10.9911 1.56447 11.9963C1.76707 12.9851 2.14583 14.1733 2.62666 15.6857L3.32303 15.4643ZM6.68508 4.8893L6.24946 4.30263C4.99107 5.23703 3.99995 5.97171 3.26616 6.65108C2.51932 7.34252 1.98786 8.02142 1.68443 8.86878L2.37237 9.11512L3.06031 9.36146C3.25613 8.8146 3.60987 8.32446 4.259 7.72347C4.92118 7.11042 5.83679 6.42931 7.1207 5.47597L6.68508 4.8893ZM2.26437 9.45481L2.96826 9.65099C2.99547 9.55334 3.02618 9.45677 3.06031 9.36146L2.37237 9.11512L1.68443 8.86878C1.63846 8.99716 1.59712 9.1272 1.56048 9.25863L2.26437 9.45481ZM12.125 22V21.2693C10.5375 21.2693 9.40626 21.2683 8.51929 21.1702C7.65025 21.0741 7.08701 20.8909 6.6192 20.5696L6.20554 21.172L5.79188 21.7743C6.52983 22.2811 7.35509 22.5118 8.35872 22.6228C9.34443 22.7317 10.57 22.7307 12.125 22.7307V22ZM3.32303 15.4643L2.62666 15.6857C3.10745 17.198 3.48445 18.3869 3.88935 19.3089C4.30077 20.2456 4.76795 20.973 5.46585 21.5322L5.9228 20.962L6.37975 20.3918C5.93448 20.035 5.58732 19.5407 5.22741 18.7212C4.86099 17.8869 4.50968 16.785 4.0194 15.2429L3.32303 15.4643ZM6.20554 21.172L6.6192 20.5696C6.53731 20.5134 6.45744 20.4541 6.37975 20.3918L5.9228 20.962L5.46585 21.5322C5.57156 21.6169 5.68031 21.6977 5.79188 21.7743L6.20554 21.172ZM20.927 15.4643L20.2306 15.2429C19.7403 16.785 19.389 17.8869 19.0226 18.7212C18.6627 19.5407 18.3155 20.035 17.8702 20.3918L18.3272 20.962L18.7842 21.5322C19.482 20.973 19.9492 20.2456 20.3607 19.3089C20.7656 18.3869 21.1425 17.198 21.6233 15.6857L20.927 15.4643ZM12.125 22V22.7307C13.68 22.7307 14.9056 22.7317 15.8913 22.6228C16.8949 22.5118 17.7202 22.2811 18.4581 21.7743L18.0445 21.172L17.6308 20.5696C17.163 20.8909 16.5998 21.0741 15.7307 21.1702C14.8437 21.2683 13.7125 21.2693 12.125 21.2693V22ZM18.3272 20.962L17.8702 20.3918C17.7926 20.4541 17.7127 20.5134 17.6308 20.5696L18.0445 21.172L18.4581 21.7743C18.5697 21.6977 18.6784 21.6169 18.7842 21.5322L18.3272 20.962ZM17.5649 4.8893L17.1293 5.47597C18.4132 6.42931 19.3288 7.11042 19.991 7.72347C20.6401 8.32446 20.9939 8.8146 21.1897 9.36146L21.8776 9.11512L22.5656 8.86878C22.2621 8.02142 21.7307 7.34252 20.9838 6.65108C20.25 5.97171 19.2589 5.23703 18.0005 4.30263L17.5649 4.8893ZM20.927 15.4643L21.6233 15.6857C22.1042 14.1733 22.4829 12.9851 22.6855 11.9963C22.8915 10.9911 22.931 10.1252 22.6895 9.25863L21.9856 9.45481L21.2817 9.65099C21.4382 10.2123 21.4339 10.8239 21.2538 11.7029C21.0704 12.5983 20.7209 13.7009 20.2306 15.2429L20.927 15.4643ZM21.8776 9.11512L21.1897 9.36146C21.2238 9.45676 21.2545 9.55334 21.2817 9.65099L21.9856 9.45481L22.6895 9.25863C22.6529 9.1272 22.6115 8.99716 22.5656 8.86878L21.8776 9.11512ZM17.5649 4.8893L18.0005 4.30263C16.7423 3.36835 15.7521 2.63187 14.8928 2.12834C14.0187 1.6162 13.2182 1.30648 12.3271 1.27307L12.2997 2.00327L12.2724 2.73348C12.833 2.7545 13.3939 2.94392 14.1539 3.38926C14.9287 3.8432 15.8452 4.52252 17.1293 5.47597L17.5649 4.8893ZM6.68508 4.8893L7.1207 5.47597C8.40476 4.52252 9.32133 3.8432 10.0961 3.38926C10.8561 2.94392 11.417 2.7545 11.9776 2.73348L11.9503 2.00327L11.9229 1.27307C11.0318 1.30648 10.2313 1.6162 9.35723 2.12834C8.49787 2.63187 7.50771 3.36835 6.24946 4.30263L6.68508 4.8893ZM12.2997 2.00327L12.3271 1.27307C12.1924 1.26802 12.0576 1.26802 11.9229 1.27307L11.9503 2.00327L11.9776 2.73348C12.0758 2.72979 12.1742 2.72979 12.2724 2.73348L12.2997 2.00327ZM10.2184 17.4129V18.1436H14.0316V17.4129V16.6822H10.2184V17.4129Z" fill="#6A6D73"/>
</svg>
