<svg width="40" height="40" viewBox="0 0 40 40" fill="none" xmlns="http://www.w3.org/2000/svg">
<rect width="40" height="40" rx="8" fill="url(#paint0_linear_212_460)"/>
<path d="M20.0003 8.01157C15.0851 8.01157 10.4177 7.57468 8.63487 12.1465C7.89848 14.0347 8.00542 16.487 8.00542 19.9983C8.00542 23.0795 7.9066 25.9755 8.63487 27.8488C10.4136 32.4233 15.119 31.9851 19.9976 31.9851C24.7043 31.9851 29.5572 32.4747 31.3617 27.8488C32.0994 25.9416 31.9911 23.5259 31.9911 19.9983C31.9911 15.3156 32.2497 12.2925 29.9769 10.0229C27.6756 7.72346 24.5635 8.01157 19.9949 8.01157H20.0003ZM18.9255 10.1717C29.1782 10.1554 30.4831 9.01655 29.763 24.8379C29.5071 30.4336 25.2431 29.8195 20.0016 29.8195C10.4447 29.8195 10.1699 29.5463 10.1699 19.9929C10.1699 10.3286 10.928 10.1771 18.9255 10.169V10.1717ZM26.4032 12.1613C26.0215 12.1613 25.6555 12.3128 25.3857 12.5825C25.1158 12.8521 24.9642 13.2178 24.9642 13.5992C24.9642 13.9805 25.1158 14.3462 25.3857 14.6158C25.6555 14.8855 26.0215 15.037 26.4032 15.037C26.7848 15.037 27.1508 14.8855 27.4207 14.6158C27.6905 14.3462 27.8421 13.9805 27.8421 13.5992C27.8421 13.2178 27.6905 12.8521 27.4207 12.5825C27.1508 12.3128 26.7848 12.1613 26.4032 12.1613ZM20.0003 13.8426C19.1914 13.8427 18.3904 14.002 17.6431 14.3114C16.8957 14.6208 16.2167 15.0743 15.6448 15.6459C14.4897 16.8003 13.8409 18.3659 13.8411 19.9983C13.8413 21.6307 14.4904 23.1962 15.6458 24.3504C16.8011 25.5045 18.3679 26.1528 20.0016 26.1526C21.6354 26.1525 23.2021 25.5038 24.3571 24.3494C25.5122 23.195 26.161 21.6294 26.1609 19.997C26.1607 18.3645 25.5115 16.7991 24.3562 15.6449C23.2009 14.4907 21.634 13.8424 20.0003 13.8426ZM20.0003 16.0027C25.2864 16.0027 25.2932 23.9939 20.0003 23.9939C14.7156 23.9939 14.7074 16.0027 20.0003 16.0027Z" fill="white"/>
<defs>
<linearGradient id="paint0_linear_212_460" x1="2.68567" y1="37.394" x2="39.7484" y2="5.31035" gradientUnits="userSpaceOnUse">
<stop stop-color="#FFDD55"/>
<stop offset="0.5" stop-color="#FF543E"/>
<stop offset="1" stop-color="#C837AB"/>
</linearGradient>
</defs>
</svg>
