<svg width="24" height="24" viewBox="0 0 24 24" fill="none" xmlns="http://www.w3.org/2000/svg">
<path d="M12.0003 0.0115676C7.08512 0.0115676 2.41766 -0.425322 0.634874 4.14647C-0.101523 6.0347 0.00541729 8.48696 0.00541729 11.9983C0.00541729 15.0795 -0.0934008 17.9755 0.634874 19.8488C2.4136 24.4233 7.11896 23.9851 11.9976 23.9851C16.7043 23.9851 21.5572 24.4747 23.3617 19.8488C24.0994 17.9416 23.9911 15.5259 23.9911 11.9983C23.9911 7.31561 24.2497 4.29255 21.9769 2.02288C19.6756 -0.276536 16.5635 0.0115676 11.9949 0.0115676H12.0003ZM10.9255 2.17167C21.1782 2.15544 22.4831 1.01655 21.763 16.8379C21.5071 22.4336 17.2431 21.8195 12.0017 21.8195C2.44473 21.8195 2.16994 21.5463 2.16994 11.9929C2.16994 2.32857 2.92799 2.17708 10.9255 2.16897V2.17167ZM18.4032 4.16134C18.0215 4.16134 17.6555 4.31283 17.3857 4.58247C17.1158 4.85211 16.9642 5.21783 16.9642 5.59916C16.9642 5.98049 17.1158 6.3462 17.3857 6.61585C17.6555 6.88549 18.0215 7.03697 18.4032 7.03697C18.7848 7.03697 19.1508 6.88549 19.4207 6.61585C19.6905 6.3462 19.8421 5.98049 19.8421 5.59916C19.8421 5.21783 19.6905 4.85211 19.4207 4.58247C19.1508 4.31283 18.7848 4.16134 18.4032 4.16134ZM12.0003 5.84263C11.1914 5.84272 10.3904 6.00201 9.64307 6.31141C8.89575 6.62081 8.21674 7.07426 7.6448 7.64587C6.48973 8.80028 5.84091 10.3659 5.84109 11.9983C5.84127 13.6307 6.49043 15.1962 7.64576 16.3504C8.80109 17.5045 10.3679 18.1528 12.0017 18.1526C13.6354 18.1525 15.2021 17.5038 16.3571 16.3494C17.5122 15.195 18.161 13.6294 18.1609 11.997C18.1607 10.3645 17.5115 8.79907 16.3562 7.64491C15.2009 6.49075 13.634 5.84245 12.0003 5.84263ZM12.0003 8.00273C17.2864 8.00273 17.2932 15.9939 12.0003 15.9939C6.71557 15.9939 6.70744 8.00273 12.0003 8.00273Z" fill="white"/>
</svg>
