<svg width="20" height="20" viewBox="0 0 20 20" fill="none" xmlns="http://www.w3.org/2000/svg">
<path d="M20 20V12.2622C20 8.11607 17.8846 6.18738 15.0642 6.18738C12.7887 6.18738 11.769 7.49675 11.2005 8.41634V6.50498H6.9132C6.96978 7.77104 6.9132 20 6.9132 20H11.2005V12.4628C11.2005 12.0601 11.2281 11.6573 11.3426 11.37C11.6517 10.5645 12.3568 9.73004 13.5408 9.73004C15.0931 9.73004 15.7127 10.9672 15.7127 12.7804V20H20ZM2.39685 4.66291C3.89126 4.66291 4.82269 3.62639 4.82269 2.33001C4.79509 1.00621 3.89127 0 2.42445 0C0.957638 0 0 1.00621 0 2.33001C0 3.62495 0.93142 4.66291 2.36926 4.66291H2.39685ZM4.53981 20V6.50498H0.253898V20H4.53981Z" fill="white"/>
</svg>
