<svg width="37" height="36" viewBox="0 0 37 36" fill="none" xmlns="http://www.w3.org/2000/svg">
<path d="M18.5 4.875C17.8787 4.875 17.375 5.37868 17.375 6C17.375 6.62132 17.8787 7.125 18.5 7.125C24.5061 7.125 29.375 11.9939 29.375 18C29.375 24.0061 24.5061 28.875 18.5 28.875C17.8787 28.875 17.375 29.3787 17.375 30C17.375 30.6213 17.8787 31.125 18.5 31.125C25.7487 31.125 31.625 25.2487 31.625 18C31.625 10.7513 25.7487 4.875 18.5 4.875Z" fill="#EF2424"/>
<path d="M16.2045 14.2955C15.7652 13.8562 15.7652 13.1438 16.2045 12.7045C16.6438 12.2652 17.3562 12.2652 17.7955 12.7045L22.2955 17.2045C22.7348 17.6438 22.7348 18.3562 22.2955 18.7955L17.7955 23.2955C17.3562 23.7348 16.6438 23.7348 16.2045 23.2955C15.7652 22.8562 15.7652 22.1438 16.2045 21.7045L18.784 19.125H6.5C5.87868 19.125 5.375 18.6213 5.375 18C5.375 17.3787 5.87868 16.875 6.5 16.875H18.784L16.2045 14.2955Z" fill="#EF2424"/>
</svg>
