<svg width="27" height="26" viewBox="0 0 27 26" fill="none" xmlns="http://www.w3.org/2000/svg">
<path d="M23.3961 10.4838L24.8537 5.78642C25.3064 4.32755 24.8273 3.53231 23.1822 3.0218L19.0021 1.72468C17.357 1.21417 16.5118 1.59844 16.0591 3.05732L14.6046 7.74433C14.1487 9.21355 14.6311 9.99845 16.2762 10.5089L20.4563 11.8061C22.0982 12.3269 22.9433 11.9427 23.3961 10.4838Z" stroke="#808080" stroke-width="1.5" stroke-linecap="round" stroke-linejoin="round"/>
<path d="M24.3333 21.4175V17.0408C24.3333 15.3183 23.64 14.625 21.9175 14.625H17.5408C15.8183 14.625 15.125 15.3183 15.125 17.0408V21.4175C15.125 23.14 15.8183 23.8333 17.5408 23.8333H21.9175C23.64 23.8333 24.3333 23.14 24.3333 21.4175Z" stroke="#808080" stroke-width="1.5" stroke-linecap="round" stroke-linejoin="round"/>
<path d="M11.875 9.23V4.31167C11.875 2.78417 11.1817 2.16667 9.45916 2.16667H5.08249C3.35999 2.16667 2.66666 2.78417 2.66666 4.31167V9.21917C2.66666 10.7575 3.35999 11.3642 5.08249 11.3642H9.45916C11.1817 11.375 11.875 10.7575 11.875 9.23Z" stroke="#808080" stroke-width="1.5" stroke-linecap="round" stroke-linejoin="round"/>
<path d="M11.875 21.4175V17.0408C11.875 15.3183 11.1817 14.625 9.45916 14.625H5.08249C3.35999 14.625 2.66666 15.3183 2.66666 17.0408V21.4175C2.66666 23.14 3.35999 23.8333 5.08249 23.8333H9.45916C11.1817 23.8333 11.875 23.14 11.875 21.4175Z" stroke="#808080" stroke-width="1.5" stroke-linecap="round" stroke-linejoin="round"/>
</svg>
