<svg width="20" height="20" viewBox="0 0 210 210" fill="none" xmlns="http://www.w3.org/2000/svg">
  <g>
    <path d="M115,0H95c-8.284,0-15,6.716-15,15v20c0,8.284,6.716,15,15,15h20c8.284,0,15-6.716,15-15V15C130,6.716,123.284,0,115,0z" fill="#000000" stroke="#808080" stroke-width="1.2" stroke-linecap="round" stroke-linejoin="round"/>
    <path d="M115,80H95c-8.284,0-15,6.716-15,15v20c0,8.284,6.716,15,15,15h20c8.284,0,15-6.716,15-15V95C130,86.716,123.284,80,115,80z" fill="#000000" stroke="#808080" stroke-width="1.2" stroke-linecap="round" stroke-linejoin="round"/>
    <path d="M115,160H95c-8.284,0-15,6.716-15,15v20c0,8.284,6.716,15,15,15h20c8.284,0,15-6.716,15-15v-20C130,166.716,123.284,160,115,160z" fill="#000000" stroke="#808080" stroke-width="1.2" stroke-linecap="round" stroke-linejoin="round"/>
  </g>
</svg>
