<svg width="24" height="24" viewBox="0 0 24 24" fill="none" xmlns="http://www.w3.org/2000/svg">
<g clip-path="url(#clip0_124_6439)">
<path d="M16.9799 12.225H9.17236C8.8617 12.225 8.60986 12.4768 8.60986 12.7875V18.69C8.60986 19.0006 8.8617 19.2525 9.17236 19.2525H16.9799C17.2905 19.2525 17.5424 19.0006 17.5424 18.69V12.7875C17.5424 12.4768 17.2905 12.225 16.9799 12.225Z" fill="#4DC8FF"/>
<path d="M17.5424 12.7875V13.625C17.5424 13.7244 17.5029 13.8198 17.4325 13.8901C17.3622 13.9605 17.2668 14 17.1674 14C17.0679 14 16.9725 13.9605 16.9022 13.8901C16.8319 13.8198 16.7924 13.7244 16.7924 13.625V12.975H9.35986V13.625C9.35986 13.7244 9.32035 13.8198 9.25003 13.8901C9.1797 13.9605 9.08432 14 8.98486 14C8.88541 14 8.79003 13.9605 8.7197 13.8901C8.64937 13.8198 8.60986 13.7244 8.60986 13.625V12.7875C8.60986 12.6383 8.66913 12.4952 8.77462 12.3897C8.88011 12.2842 9.02318 12.225 9.17236 12.225H16.9799C17.129 12.225 17.2721 12.2842 17.3776 12.3897C17.4831 12.4952 17.5424 12.6383 17.5424 12.7875Z" fill="#61E6FF"/>
<path d="M17.5424 15.2626V18.2026L16.3799 19.2501H9.17236C9.02318 19.2501 8.88011 19.1908 8.77462 19.0853C8.66913 18.9798 8.60986 18.8368 8.60986 18.6876V14.7626L13.0324 16.4651C13.1636 16.5157 13.2835 16.5917 13.3852 16.6888C13.487 16.7859 13.5685 16.9021 13.6252 17.0308C13.6819 17.1595 13.7126 17.2981 13.7155 17.4387C13.7185 17.5793 13.6936 17.7191 13.6424 17.8501C13.6424 17.8751 13.3974 18.0151 17.5424 15.2626Z" fill="#4DAAFF"/>
<path d="M14.2826 16.0975L13.0776 15.3675L11.8701 16.0975V12.225H14.2826V16.0975Z" fill="#4D7DD2"/>
<path d="M11.8701 12.225H14.2826V12.975H11.8701V12.225Z" fill="#4DC8FF"/>
<path d="M19.5923 17.3675C19.5935 17.5158 19.5636 17.6627 19.5046 17.7988C19.4456 17.9348 19.3588 18.057 19.2498 18.1575L14.2723 22.6575C13.6906 23.1808 12.9771 23.5353 12.2088 23.6829C11.4405 23.8305 10.6464 23.7655 9.91227 23.495L6.05977 22.07C5.70977 21.9425 5.58227 21.9625 4.75977 21.975V16.6975L5.62477 16.215C5.99617 16.0077 6.40871 15.8847 6.83302 15.8549C7.25734 15.8251 7.68301 15.8891 8.07977 16.0425C13.4773 18.12 13.1673 17.97 13.3748 18.16C13.5343 18.3055 13.646 18.4959 13.6951 18.7061C13.7442 18.9163 13.7284 19.1365 13.6498 19.3375C13.6498 19.3625 13.3998 19.5075 17.9523 16.4825C18.1122 16.3789 18.297 16.3203 18.4874 16.3127C18.6778 16.3051 18.8667 16.3488 19.0344 16.4393C19.202 16.5298 19.3423 16.6637 19.4405 16.827C19.5386 16.9903 19.591 17.177 19.5923 17.3675Z" fill="#FFC7AE"/>
<path d="M19.2498 18.1576L14.2723 22.6576C13.6906 23.1808 12.9771 23.5354 12.2088 23.683C11.4405 23.8306 10.6464 23.7656 9.91227 23.4951L6.05977 22.0701C5.70977 21.9426 5.58227 21.9626 4.75977 21.9751V20.9026C5.44977 20.9026 5.67477 20.8576 6.05977 20.9976L9.91227 22.4226C10.6464 22.6931 11.4405 22.7581 12.2088 22.6105C12.9771 22.4629 13.6906 22.1083 14.2723 21.5851C19.7273 16.6651 19.3373 17.0476 19.4573 16.8351C19.5796 17.0459 19.6258 17.2923 19.588 17.5331C19.5502 17.7739 19.4308 17.9944 19.2498 18.1576Z" fill="#FFA990"/>
<path d="M4.75018 16.7501V22.8001C4.75018 22.8843 4.71672 22.965 4.65718 23.0246C4.59764 23.0841 4.51688 23.1176 4.43268 23.1176H3.36768V16.4301H4.43518C4.47687 16.4304 4.51809 16.4389 4.55649 16.4552C4.59488 16.4714 4.6297 16.4951 4.65895 16.5248C4.6882 16.5545 4.71131 16.5897 4.72697 16.6284C4.74262 16.667 4.75051 16.7084 4.75018 16.7501Z" fill="#C5CCFF"/>
<path d="M4.75018 21.19V22.7975C4.75018 22.8817 4.71672 22.9625 4.65718 23.022C4.59764 23.0815 4.51688 23.115 4.43268 23.115H3.36768V20.865H4.43518C4.4772 20.8656 4.51869 20.8746 4.55726 20.8913C4.59584 20.9079 4.63075 20.9321 4.66 20.9622C4.68925 20.9924 4.71227 21.0281 4.72774 21.0671C4.74321 21.1062 4.75084 21.148 4.75018 21.19Z" fill="#A2A9D2"/>
<path d="M0.252441 16.4301H3.36994V23.1176H0.252441V16.4301Z" fill="#E8EFFF"/>
<path d="M1.18506 16.4301H2.43506V20.0226H1.18506V16.4301Z" fill="white"/>
<path d="M0.252441 20.87H3.36994V23.115H0.252441V20.87Z" fill="#CAD1FF"/>
<path d="M16.5201 7.50004L5.67757 9.89004C5.64274 9.89811 5.60665 9.8991 5.57142 9.89298C5.5362 9.88686 5.50257 9.87374 5.4725 9.85439C5.44244 9.83505 5.41655 9.80988 5.39638 9.78036C5.37621 9.75084 5.36217 9.71758 5.35507 9.68254C4.70757 6.71754 4.91257 7.66754 4.10507 4.03254C4.09733 3.99758 4.09656 3.96143 4.10281 3.92617C4.10905 3.8909 4.12218 3.85722 4.14145 3.82703C4.16072 3.79685 4.18576 3.77076 4.21512 3.75026C4.24448 3.72975 4.27759 3.71524 4.31257 3.70754L15.1626 1.33004C15.1975 1.32231 15.2337 1.32154 15.2689 1.32778C15.3042 1.33403 15.3379 1.34716 15.3681 1.36643C15.3983 1.3857 15.4243 1.41073 15.4449 1.44009C15.4654 1.46945 15.4799 1.50257 15.4876 1.53754C16.3076 5.26004 16.5626 6.42754 16.7376 7.18754C16.7493 7.25772 16.7331 7.32969 16.6924 7.38808C16.6518 7.44647 16.5899 7.48666 16.5201 7.50004Z" fill="#008C72"/>
<path d="M4.97762 4.46508C4.97395 4.44833 4.97363 4.43102 4.97668 4.41415C4.97972 4.39728 4.98608 4.38118 4.99537 4.36677C5.00467 4.35236 5.01672 4.33994 5.03083 4.33021C5.04495 4.32048 5.06085 4.31364 5.07762 4.31008L14.7326 2.19258C14.7661 2.1859 14.8008 2.19264 14.8293 2.21135C14.8579 2.23006 14.8779 2.25923 14.8851 2.29258L15.8651 6.75008C15.8726 6.78355 15.8666 6.81862 15.8483 6.84766C15.83 6.87669 15.801 6.89733 15.7676 6.90508L6.11262 9.02758C6.09588 9.03125 6.07857 9.03157 6.0617 9.02852C6.04482 9.02548 6.02872 9.01913 6.01432 9.00983C5.99991 9.00054 5.98748 8.98848 5.97775 8.97437C5.96802 8.96025 5.96118 8.94435 5.95762 8.92758C5.59762 7.28508 4.97012 4.43008 4.97762 4.46508Z" fill="#00A072"/>
<path d="M16.5198 7.5L11.6973 8.5675V4.5L16.4773 6.045C16.7273 7.1375 16.6673 6.9125 16.7273 7.19C16.7386 7.25837 16.7234 7.32848 16.6849 7.38607C16.6463 7.44366 16.5873 7.4844 16.5198 7.5Z" fill="#007372"/>
<path d="M16.5198 7.50005L14.9823 7.83755C14.9161 7.60197 14.9011 7.35492 14.9386 7.11308C14.976 6.87124 15.0649 6.64026 15.1993 6.43573C15.3337 6.23121 15.5104 6.05791 15.7175 5.92754C15.9246 5.79718 16.1573 5.71278 16.3998 5.68005C16.7173 7.13005 16.6673 6.89255 16.7273 7.18005C16.7414 7.24994 16.7276 7.32258 16.6889 7.3824C16.6501 7.44223 16.5894 7.48447 16.5198 7.50005Z" fill="#005A72"/>
<path d="M7.14733 9.56754L5.67733 9.89004C5.6425 9.8981 5.60641 9.8991 5.57119 9.89298C5.53597 9.88685 5.50233 9.87373 5.47227 9.85439C5.4422 9.83504 5.41632 9.80987 5.39615 9.78035C5.37598 9.75084 5.36193 9.71758 5.35483 9.68254L5.03983 8.25004C5.26191 8.1914 5.49355 8.17823 5.72084 8.21133C5.94813 8.24443 6.16639 8.32312 6.36252 8.44266C6.55865 8.56221 6.7286 8.72015 6.86217 8.907C6.99575 9.09386 7.09019 9.30578 7.13983 9.53004C7.14318 9.54235 7.14568 9.55488 7.14733 9.56754ZM4.48233 5.56754C4.43983 5.56754 4.48233 5.73754 4.11483 4.03254C4.1071 3.99757 4.10633 3.96142 4.11257 3.92616C4.11882 3.8909 4.13195 3.85721 4.15122 3.82703C4.17049 3.79685 4.19552 3.77076 4.22488 3.75025C4.25424 3.72975 4.28736 3.71523 4.32233 3.70754L5.74983 3.39754C5.82004 3.62328 5.84247 3.86118 5.81568 4.09607C5.78889 4.33095 5.71347 4.55769 5.59424 4.76183C5.475 4.96597 5.31455 5.14303 5.12312 5.28175C4.93168 5.42047 4.71345 5.5178 4.48233 5.56754ZM15.8098 3.00004C15.5761 3.07952 15.3279 3.10735 15.0823 3.08164C14.8368 3.05592 14.5997 2.97725 14.3875 2.85106C14.1753 2.72488 13.9929 2.55417 13.8531 2.3507C13.7132 2.14724 13.6191 1.91587 13.5773 1.67254L15.1623 1.32504C15.1973 1.3173 15.2334 1.31653 15.2687 1.32278C15.304 1.32902 15.3377 1.34215 15.3678 1.36142C15.398 1.3807 15.4241 1.40573 15.4446 1.43509C15.4651 1.46445 15.4796 1.49756 15.4873 1.53254L15.8098 3.00004Z" fill="#006E72"/>
<path d="M19.3751 6.37006L18.6251 6.78256C18.3065 6.95874 17.9533 7.06323 17.5902 7.0887C17.227 7.11418 16.8627 7.06004 16.5226 6.93006L12.2726 5.29506C12.0477 5.21317 11.8641 5.04622 11.7611 4.83019C11.6582 4.61416 11.6442 4.36633 11.7222 4.1401C11.8003 3.91388 11.964 3.72736 12.1783 3.62073C12.3925 3.51411 12.6401 3.49591 12.8676 3.57006L16.5701 4.71006L19.3751 6.37006Z" fill="white"/>
<path d="M19.375 0.97998H23.7475V7.59248H19.375V0.97998Z" fill="#E8EFFF"/>
<path d="M11.7648 4.10506C11.7203 4.2173 11.6985 4.33722 11.7006 4.45791C11.7027 4.57861 11.7287 4.69769 11.7771 4.80831C11.8254 4.91892 11.8951 5.01888 11.9823 5.10242C12.0694 5.18596 12.1722 5.25143 12.2848 5.29506C12.3448 5.31756 16.6198 6.96506 16.6848 6.98006C17.0065 7.08171 17.3457 7.11662 17.6814 7.08266C18.0171 7.0487 18.3424 6.94659 18.6373 6.78256L19.3873 6.37006V1.87006L18.6373 1.88256C18.4948 1.88256 18.7898 1.97756 14.6723 0.457564C14.1346 0.255039 13.5518 0.203888 12.9871 0.309682C12.4224 0.415475 11.8976 0.674158 11.4698 1.05756L9.88477 2.50006L15.1648 1.33006C15.1997 1.32233 15.2359 1.32156 15.2711 1.3278C15.3064 1.33405 15.3401 1.34718 15.3703 1.36645C15.4005 1.38572 15.4265 1.41075 15.4471 1.44011C15.4676 1.46948 15.4821 1.50259 15.4898 1.53756L16.1573 4.58006C12.6398 3.48756 12.7973 3.53006 12.6148 3.53006C12.4319 3.5303 12.2533 3.58516 12.1019 3.68761C11.9504 3.79007 11.833 3.93543 11.7648 4.10506Z" fill="#FFC7AE"/>
<path d="M19.3726 5.55748V6.36998L18.6351 6.78248C18.3162 6.95904 17.9625 7.06372 17.5989 7.0892C17.2353 7.11468 16.8705 7.06034 16.5301 6.92998C14.6151 6.17998 15.5576 6.55498 12.2801 5.29498C12.1675 5.25134 12.0647 5.18587 11.9776 5.10233C11.8904 5.01879 11.8207 4.91883 11.7724 4.80822C11.724 4.69761 11.698 4.57852 11.6959 4.45783C11.6938 4.33713 11.7156 4.21721 11.7601 4.10498C11.7694 4.08178 11.7802 4.05922 11.7926 4.03748C11.8964 4.2441 12.0753 4.40327 12.2926 4.48248C12.3451 4.50248 16.6301 6.15248 16.6926 6.16748C17.0143 6.26912 17.3535 6.30403 17.6892 6.27007C18.0249 6.23611 18.3502 6.134 18.6451 5.96998L19.3726 5.55748Z" fill="#FFA990"/>
<path d="M9.3324 5.72003C9.35168 5.90756 9.41904 6.08694 9.52797 6.24079C9.63691 6.39465 9.78372 6.51778 9.95419 6.59826C10.1247 6.67874 10.313 6.71385 10.5011 6.70018C10.6891 6.68651 10.8704 6.62453 11.0274 6.52024C11.1845 6.41595 11.3119 6.27288 11.3975 6.10489C11.483 5.93689 11.5237 5.74966 11.5157 5.56131C11.5076 5.37297 11.4511 5.18989 11.3515 5.0298C11.252 4.86971 11.1128 4.73804 10.9474 4.64753C10.7723 4.55169 10.5743 4.50554 10.3749 4.51406C10.1755 4.52258 9.98218 4.58546 9.81589 4.69588C9.64961 4.80631 9.51668 4.96009 9.43146 5.14059C9.34624 5.3211 9.31199 5.52147 9.3324 5.72003Z" fill="#006E72"/>
<path d="M20.9375 0.905029H22.1875V4.49753H20.9375V0.905029Z" fill="white"/>
<path d="M19.375 5.34753H23.75V7.59253H19.375V5.34753Z" fill="#CAD1FF"/>
<path d="M17.8075 16.3125C17.7825 16.33 17.7925 16.5925 17.7925 12.8125C17.7918 12.5972 17.706 12.391 17.5538 12.2387C17.4016 12.0865 17.1953 12.0007 16.98 12H14.8175C14.9221 11.8368 14.9807 11.6484 14.9874 11.4547C14.9941 11.261 14.9485 11.069 14.8554 10.899C14.7623 10.7289 14.6252 10.5871 14.4584 10.4883C14.2916 10.3895 14.1013 10.3374 13.9075 10.3375C13.7471 10.3397 13.5892 10.3778 13.4455 10.4493C13.3018 10.5207 13.1761 10.6235 13.0775 10.75C12.9044 10.5379 12.657 10.3995 12.3856 10.3632C12.1142 10.3268 11.8391 10.3952 11.6163 10.5544C11.3935 10.7135 11.2396 10.9515 11.186 11.2201C11.1323 11.4886 11.1829 11.7675 11.3275 12H9.1725C8.95721 12.0007 8.75093 12.0865 8.5987 12.2387C8.44647 12.391 8.36066 12.5972 8.36 12.8125V15.92L8.1625 15.845C7.4853 15.5852 6.73927 15.5667 6.05 15.7925C5.62914 15.9517 5.22611 16.1544 4.8475 16.3975C4.79465 16.341 4.73079 16.2958 4.65986 16.2649C4.58892 16.2339 4.5124 16.2178 4.435 16.2175H0.25C0.183696 16.2175 0.120107 16.2439 0.0732233 16.2908C0.0263392 16.3376 0 16.4012 0 16.4675L0 23.1525C0 23.2188 0.0263392 23.2824 0.0732233 23.3293C0.120107 23.3762 0.183696 23.4025 0.25 23.4025H4.435C4.58508 23.4019 4.72878 23.3418 4.83467 23.2354C4.94055 23.1291 5 22.9851 5 22.835V22.25C5.9375 22.2325 5.2325 22.0625 9.8175 23.75C10.5939 24.0384 11.4346 24.1081 12.2479 23.9516C13.0612 23.7951 13.816 23.4184 14.43 22.8625L19.4075 18.3625C19.6499 18.1399 19.7998 17.8343 19.8275 17.5064C19.8551 17.1784 19.7586 16.852 19.557 16.5919C19.3554 16.3317 19.0634 16.1569 18.7389 16.1019C18.4144 16.0469 18.0811 16.1158 17.805 16.295L17.8075 16.3125ZM12.12 12.5125H14.0325V15.69L13.205 15.19C13.167 15.1681 13.1239 15.1565 13.08 15.1565C13.0361 15.1565 12.993 15.1681 12.955 15.19L12.1275 15.69L12.12 12.5125ZM13.9075 10.85C14.0551 10.8597 14.1934 10.9252 14.2945 11.0331C14.3956 11.141 14.4519 11.2834 14.4519 11.4313C14.4519 11.5792 14.3956 11.7215 14.2945 11.8295C14.1934 11.9374 14.0551 12.0029 13.9075 12.0125H13.3275V11.4325C13.3272 11.3562 13.3419 11.2805 13.3709 11.2098C13.3999 11.1392 13.4426 11.0749 13.4965 11.0208C13.5504 10.9667 13.6144 10.9237 13.685 10.8944C13.7555 10.8651 13.8311 10.85 13.9075 10.85ZM11.6575 11.4325C11.6575 11.278 11.7189 11.1299 11.8281 11.0206C11.9374 10.9114 12.0855 10.85 12.24 10.85C12.3945 10.85 12.5426 10.9114 12.6519 11.0206C12.7611 11.1299 12.8225 11.278 12.8225 11.4325V12.0125H12.235C12.0825 12.0106 11.9369 11.9486 11.8297 11.84C11.7226 11.7315 11.6625 11.5851 11.6625 11.4325H11.6575ZM8.86 12.825C8.86 12.7422 8.89292 12.6627 8.95153 12.6041C9.01013 12.5455 9.08962 12.5125 9.1725 12.5125H11.62V16.135C11.6202 16.1793 11.6321 16.2228 11.6546 16.2609C11.6771 16.2991 11.7093 16.3306 11.748 16.3522C11.7866 16.3738 11.8303 16.3848 11.8746 16.384C11.9189 16.3831 11.9622 16.3706 12 16.3475L13.0775 15.6975C14.235 16.3975 14.185 16.385 14.2825 16.385C14.3488 16.385 14.4124 16.3587 14.4593 16.3118C14.5062 16.2649 14.5325 16.2013 14.5325 16.135V12.5125H16.98C17.0629 12.5125 17.1424 12.5455 17.201 12.6041C17.2596 12.6627 17.2925 12.7422 17.2925 12.825V16.655C13.675 19.055 13.97 18.8725 13.9575 18.8475C13.9336 18.6052 13.8428 18.3743 13.6954 18.1805C13.548 17.9868 13.3496 17.8377 13.1225 17.75L8.86 16.115V12.825ZM4.5 16.785V20.665C4.20615 20.6459 3.91135 20.6459 3.6175 20.665V16.7175H4.4325C4.44146 16.7172 4.45039 16.7187 4.45874 16.722C4.46709 16.7252 4.47467 16.7302 4.48101 16.7365C4.48735 16.7429 4.49231 16.7504 4.49558 16.7588C4.49885 16.7671 4.50035 16.7761 4.5 16.785ZM0.5 16.7175H3.1175V22.9025H0.5V16.7175ZM4.435 22.9025H3.62V21.1525H4.435C4.4527 21.1532 4.46951 21.1605 4.48204 21.173C4.49457 21.1855 4.50188 21.2023 4.5025 21.22V22.83C4.50319 22.8393 4.50195 22.8486 4.49887 22.8574C4.49579 22.8662 4.49093 22.8742 4.48459 22.881C4.47825 22.8878 4.47057 22.8933 4.46204 22.897C4.45351 22.9007 4.4443 22.9026 4.435 22.9025ZM19.075 18L14.0975 22.5C13.5513 22.9925 12.8807 23.3261 12.1585 23.4649C11.4363 23.6037 10.6899 23.5424 10 23.2875C5.465 21.6125 6.04 21.7325 5 21.75V16.8825L5.75 16.47C6.09054 16.2804 6.46863 16.168 6.85746 16.1407C7.2463 16.1135 7.63636 16.1722 8 16.3125C13.3875 18.3825 13.075 18.2425 13.2325 18.395C13.3086 18.4661 13.3705 18.5509 13.415 18.645C13.4779 18.7893 13.4979 18.9486 13.4725 19.1039C13.4471 19.2591 13.3774 19.4038 13.2718 19.5205C13.1663 19.6371 13.0293 19.7209 12.8773 19.7616C12.7253 19.8023 12.5648 19.7983 12.415 19.75L8.0875 18.4325C8.02385 18.413 7.95503 18.4195 7.89619 18.4507C7.83735 18.4819 7.79331 18.5351 7.77375 18.5988C7.75419 18.6624 7.76072 18.7313 7.7919 18.7901C7.82307 18.8489 7.87635 18.893 7.94 18.9125L12.2625 20.25C12.5638 20.3415 12.8879 20.3222 13.1763 20.1957C13.4647 20.0692 13.6983 19.8437 13.835 19.56L18.085 16.74C18.2544 16.6074 18.4696 16.5475 18.6831 16.5736C18.8967 16.5996 19.0911 16.7094 19.2237 16.8788C19.3564 17.0482 19.4162 17.2633 19.3902 17.4769C19.3642 17.6905 19.2544 17.8849 19.085 18.0175L19.075 18ZM23.75 0.767533H19.375C19.3087 0.767533 19.2451 0.793872 19.1982 0.840757C19.1513 0.887641 19.125 0.951229 19.125 1.01753V1.65003H18.625C18.545 1.65003 18.7775 1.72503 14.755 0.240033C14.1731 0.0239285 13.5429 -0.0278721 12.9335 0.0903045C12.3241 0.208481 11.759 0.492077 11.3 0.910033L9.765 2.29503L4.2675 3.50003C4.13261 3.53053 4.0152 3.61301 3.94077 3.72956C3.86635 3.84612 3.84091 3.98734 3.87 4.12253L5.12 9.77003C5.14466 9.8853 5.20738 9.9889 5.29808 10.0642C5.38878 10.1395 5.50217 10.182 5.62 10.185C5.7125 10.185 16.55 7.79753 16.575 7.79253C16.6812 7.76954 16.7775 7.71371 16.8502 7.63294C16.9229 7.55217 16.9683 7.45057 16.98 7.34253C17.1285 7.36942 17.2791 7.38281 17.43 7.38253C18.21 7.38253 18.6625 7.09253 19.1275 6.83253V7.63003C19.1275 7.69634 19.1538 7.75993 19.2007 7.80681C19.2476 7.85369 19.3112 7.88003 19.3775 7.88003H23.75C23.8163 7.88003 23.8799 7.85369 23.9268 7.80681C23.9737 7.75993 24 7.69634 24 7.63003V1.01753C24 0.951229 23.9737 0.887641 23.9268 0.840757C23.8799 0.793872 23.8163 0.767533 23.75 0.767533ZM15.25 1.63003L15.52 2.86253C15.1793 2.92152 14.8287 2.85765 14.5306 2.68231C14.2326 2.50696 14.0064 2.23152 13.8925 1.90503C15.23 1.61003 15.25 1.59753 15.25 1.63003ZM5.5525 3.73253C5.60038 4.05788 5.53644 4.38986 5.37113 4.67414C5.20583 4.95843 4.94894 5.17821 4.6425 5.29753C4.37 4.06503 4.35 4.02503 4.3625 4.00003C4.3666 3.99898 4.3709 3.99898 4.375 4.00003L5.5525 3.73253ZM5.34 8.48253C5.65773 8.4538 5.97616 8.52957 6.24689 8.69833C6.51763 8.86709 6.72588 9.11962 6.84 9.41753C5.5375 9.70503 5.6375 9.69253 5.6125 9.66753C5.5875 9.64253 5.62 9.76253 5.34 8.48003V8.48253ZM7.34 9.31003C7.1942 8.88178 6.90456 8.51725 6.52035 8.27843C6.13613 8.0396 5.68105 7.94123 5.2325 8.00003L4.75 5.78753C5.18651 5.63856 5.55588 5.33932 5.79217 4.94321C6.02846 4.5471 6.1163 4.07991 6.04 3.62503L13.395 2.01253C13.537 2.46958 13.8424 2.85832 14.2528 3.10456C14.6632 3.35079 15.1499 3.43729 15.62 3.34753L15.8175 4.25003L12.955 3.36753C12.7494 3.30498 12.5304 3.30079 12.3226 3.35541C12.1147 3.41004 11.9261 3.52134 11.7778 3.6769C11.6295 3.83246 11.5273 4.02616 11.4827 4.2364C11.4381 4.44663 11.4527 4.66514 11.525 4.86753C11.3294 4.58439 11.0331 4.38649 10.6967 4.31412C10.3602 4.24176 10.0088 4.30039 9.71405 4.47807C9.4193 4.65574 9.20337 4.9391 9.11025 5.27042C9.01712 5.60174 9.05381 5.9561 9.21283 6.26132C9.37185 6.56654 9.64125 6.79966 9.96614 6.91319C10.291 7.02671 10.647 7.01212 10.9615 6.87236C11.276 6.73261 11.5254 6.47822 11.6589 6.16101C11.7924 5.84379 11.7999 5.48762 11.68 5.16503C11.8105 5.34249 11.9893 5.47873 12.195 5.55753L14.8525 6.58253C14.6926 6.92652 14.6353 7.30931 14.6875 7.68503L7.34 9.31003ZM10.6075 6.47253C10.4435 6.51016 10.2719 6.49809 10.1148 6.43787C9.95763 6.37765 9.82197 6.272 9.72508 6.13439C9.62819 5.99678 9.57447 5.83345 9.57075 5.66519C9.56704 5.49694 9.6135 5.33138 9.70422 5.18963C9.79494 5.04788 9.92581 4.93635 10.0801 4.86925C10.2345 4.80215 10.4053 4.78253 10.5709 4.81287C10.7364 4.84322 10.8891 4.92216 11.0097 5.03964C11.1302 5.15712 11.213 5.30782 11.2475 5.47253C11.2937 5.68989 11.2525 5.91671 11.1327 6.10387C11.0129 6.29104 10.8242 6.42349 10.6075 6.47253ZM16.47 7.30253C16.445 7.30253 16.4875 7.30253 15.1775 7.58503C15.1785 7.57925 15.1785 7.57332 15.1775 7.56753C15.1505 7.29311 15.2016 7.01665 15.325 6.77003L16.47 7.21003L16.485 7.27503C16.486 7.28064 16.4851 7.28642 16.4823 7.29142C16.4796 7.29643 16.4753 7.30035 16.47 7.30253ZM19.1225 6.25003L18.515 6.60003C18.0215 6.87363 17.4428 6.95044 16.895 6.81503C16.68 6.77503 16.6275 6.73503 12.3725 5.10003C12.2145 5.03654 12.087 4.91464 12.0165 4.75962C11.9459 4.60461 11.9378 4.42839 11.9938 4.26755C12.0498 4.10672 12.1655 3.97361 12.317 3.89586C12.4686 3.81812 12.6442 3.8017 12.8075 3.85003C17.6775 5.35003 16.235 4.89753 16.5075 4.98753C16.5708 5.00706 16.6393 5.00065 16.6979 4.96971C16.7565 4.93877 16.8004 4.88584 16.82 4.82253C16.8312 4.79056 16.8358 4.75665 16.8335 4.72285C16.8312 4.68904 16.8221 4.65606 16.8067 4.6259C16.7912 4.59574 16.7698 4.56903 16.7438 4.54739C16.7177 4.52575 16.6875 4.50964 16.655 4.50003L16.3675 4.41253C15.335 -0.299967 15.92 2.36253 15.7325 1.51253C15.7026 1.37731 15.6202 1.25948 15.5035 1.18494C15.3868 1.11041 15.2453 1.08526 15.11 1.11503L10.75 2.07753L11.6325 1.28003C12.0245 0.926809 12.5057 0.68765 13.024 0.588491C13.5423 0.489333 14.0778 0.53396 14.5725 0.717533L18.3225 2.10503C18.515 2.18003 18.62 2.15753 19.1125 2.15003L19.1225 6.25003ZM23.5 7.38003H19.625V1.26753H23.5V7.38003Z" fill="#302D3D"/>
</g>
<defs>
<clipPath id="clip0_124_6439">
<rect width="24" height="24" fill="white"/>
</clipPath>
</defs>
</svg>
