<svg width="24" height="24" viewBox="0 0 24 24" fill="none" xmlns="http://www.w3.org/2000/svg">
<path d="M12.4004 2.40002C12.4004 2.40002 14.6004 2.60002 17.4004 5.40002C20.2004 8.20003 20.4004 10.4 20.4004 10.4" stroke="white" stroke-width="1.5" stroke-linecap="round"/>
<path d="M12.6073 5.93567C12.6073 5.93567 13.5972 6.21851 15.0821 7.70344C16.5671 9.18836 16.8499 10.1783 16.8499 10.1783" stroke="white" stroke-width="1.5" stroke-linecap="round"/>
<path d="M8.43783 5.7162L9.08684 6.87912C9.67254 7.92861 9.43742 9.30535 8.51495 10.2278C8.51495 10.2278 7.39601 11.3468 9.42475 13.3755C11.4535 15.4042 12.5724 14.2853 12.5724 14.2853C13.4949 13.3628 14.8717 13.1277 15.9211 13.7134L17.0841 14.3624C18.6688 15.2468 18.856 17.4693 17.463 18.8622C16.626 19.6992 15.6006 20.3505 14.4672 20.3935C12.559 20.4658 9.31852 19.9829 6.06794 16.7323C2.81737 13.4817 2.33445 10.2412 2.40679 8.33311C2.44976 7.19962 3.10104 6.17426 3.93804 5.33726C5.33099 3.94431 7.55341 4.13146 8.43783 5.7162Z" stroke="white" stroke-width="1.5" stroke-linecap="round"/>
</svg>
