<svg width="16" height="16" viewBox="0 0 16 16" fill="none" xmlns="http://www.w3.org/2000/svg">
<g clip-path="url(#clip0_124_6527)">
<path d="M1.33301 9.33333C1.33301 6.81918 1.33301 5.5621 2.11406 4.78105C2.8951 4 4.15218 4 6.66634 4H9.33301C11.8472 4 13.1042 4 13.8853 4.78105C14.6663 5.5621 14.6663 6.81918 14.6663 9.33333C14.6663 11.8475 14.6663 13.1046 13.8853 13.8856C13.1042 14.6667 11.8472 14.6667 9.33301 14.6667H6.66634C4.15218 14.6667 2.8951 14.6667 2.11406 13.8856C1.33301 13.1046 1.33301 11.8475 1.33301 9.33333Z" stroke="#111111"/>
<path d="M10.6663 4.00004C10.6663 2.74296 10.6663 2.11442 10.2758 1.7239C9.88529 1.33337 9.25675 1.33337 7.99967 1.33337C6.7426 1.33337 6.11406 1.33337 5.72353 1.7239C5.33301 2.11442 5.33301 2.74296 5.33301 4.00004" stroke="#111111"/>
<path d="M11.3333 6.00004C11.3333 6.36823 11.0349 6.66671 10.6667 6.66671C10.2985 6.66671 10 6.36823 10 6.00004C10 5.63185 10.2985 5.33337 10.6667 5.33337C11.0349 5.33337 11.3333 5.63185 11.3333 6.00004Z" fill="#111111"/>
<path d="M6.00033 6.00004C6.00033 6.36823 5.70185 6.66671 5.33366 6.66671C4.96547 6.66671 4.66699 6.36823 4.66699 6.00004C4.66699 5.63185 4.96547 5.33337 5.33366 5.33337C5.70185 5.33337 6.00033 5.63185 6.00033 6.00004Z" fill="#111111"/>
</g>
<defs>
<clipPath id="clip0_124_6527">
<rect width="16" height="16" fill="white"/>
</clipPath>
</defs>
</svg>
