<svg width="25" height="24" viewBox="0 0 25 24" fill="none" xmlns="http://www.w3.org/2000/svg">
<path d="M14.5 2.75C16.4068 2.75 17.7615 2.75159 18.7892 2.88976C19.7952 3.02503 20.3749 3.27869 20.7981 3.7019C21.2852 4.18904 21.4973 4.56666 21.6147 5.23984C21.7471 5.9986 21.75 7.08092 21.75 9C21.75 9.41422 22.0858 9.75 22.5 9.75C22.9142 9.75 23.25 9.41422 23.25 9L23.25 8.90369C23.2501 7.1045 23.2501 5.88571 23.0924 4.98199C22.917 3.97665 22.5432 3.32568 21.8588 2.64124C21.1104 1.89288 20.1615 1.56076 18.989 1.40314C17.8498 1.24997 16.3942 1.24998 14.5564 1.25H14.5C14.0858 1.25 13.75 1.58579 13.75 2C13.75 2.41421 14.0858 2.75 14.5 2.75Z" fill="white"/>
<path d="M2.50001 14.25C2.91422 14.25 3.25001 14.5858 3.25001 15C3.25001 16.9191 3.25289 18.0014 3.38529 18.7602C3.50275 19.4333 3.71477 19.811 4.20191 20.2981C4.62512 20.7213 5.20476 20.975 6.21085 21.1102C7.23852 21.2484 8.59318 21.25 10.5 21.25C10.9142 21.25 11.25 21.5858 11.25 22C11.25 22.4142 10.9142 22.75 10.5 22.75H10.4436C8.60583 22.75 7.1502 22.75 6.01098 22.5969C4.83856 22.4392 3.88961 22.1071 3.14125 21.3588C2.45681 20.6743 2.08304 20.0233 1.90762 19.018C1.74992 18.1143 1.74995 16.8955 1.75 15.0964L1.75001 15C1.75001 14.5858 2.08579 14.25 2.50001 14.25Z" fill="white"/>
<path d="M22.5 14.25C22.9142 14.25 23.25 14.5858 23.25 15L23.25 15.0963C23.2501 16.8955 23.2501 18.1143 23.0924 19.018C22.917 20.0233 22.5432 20.6743 21.8588 21.3588C21.1104 22.1071 20.1615 22.4392 18.989 22.5969C17.8498 22.75 16.3942 22.75 14.5564 22.75H14.5C14.0858 22.75 13.75 22.4142 13.75 22C13.75 21.5858 14.0858 21.25 14.5 21.25C16.4068 21.25 17.7615 21.2484 18.7892 21.1102C19.7952 20.975 20.3749 20.7213 20.7981 20.2981C21.2852 19.811 21.4973 19.4333 21.6147 18.7602C21.7471 18.0014 21.75 16.9191 21.75 15C21.75 14.5858 22.0858 14.25 22.5 14.25Z" fill="white"/>
<path d="M10.4436 1.25H10.5C10.9142 1.25 11.25 1.58579 11.25 2C11.25 2.41421 10.9142 2.75 10.5 2.75C8.59319 2.75 7.23852 2.75159 6.21085 2.88976C5.20476 3.02503 4.62512 3.27869 4.20191 3.7019C3.71477 4.18904 3.50275 4.56666 3.38529 5.23984C3.25289 5.9986 3.25001 7.08092 3.25001 9C3.25001 9.41422 2.91422 9.75 2.50001 9.75C2.08579 9.75 1.75001 9.41422 1.75001 9L1.75 8.90369C1.74995 7.10453 1.74992 5.8857 1.90762 4.98199C2.08304 3.97665 2.45681 3.32568 3.14125 2.64124C3.88961 1.89288 4.83856 1.56076 6.01098 1.40314C7.15019 1.24997 8.60584 1.24998 10.4436 1.25Z" fill="white"/>
<path d="M2.50001 11.25C2.08579 11.25 1.75001 11.5858 1.75001 12C1.75001 12.4142 2.08579 12.75 2.50001 12.75H22.5C22.9142 12.75 23.25 12.4142 23.25 12C23.25 11.5858 22.9142 11.25 22.5 11.25H2.50001Z" fill="white"/>
</svg>
