<svg width="25" height="24" viewBox="0 0 25 24" fill="none" xmlns="http://www.w3.org/2000/svg">
<path fill-rule="evenodd" clip-rule="evenodd" d="M12.875 8.25C10.8039 8.25 9.125 9.92893 9.125 12C9.125 14.0711 10.8039 15.75 12.875 15.75C14.9461 15.75 16.625 14.0711 16.625 12C16.625 9.92893 14.9461 8.25 12.875 8.25ZM10.625 12C10.625 10.7574 11.6324 9.75 12.875 9.75C14.1176 9.75 15.125 10.7574 15.125 12C15.125 13.2426 14.1176 14.25 12.875 14.25C11.6324 14.25 10.625 13.2426 10.625 12Z" fill="#6A6D73"/>
<path fill-rule="evenodd" clip-rule="evenodd" d="M12.875 1.25C12.1704 1.25 11.5269 1.44359 10.8236 1.77037C10.1431 2.08656 9.35539 2.55304 8.36957 3.13685L7.61648 3.58283C6.63033 4.16682 5.84271 4.63324 5.23576 5.07944C4.60815 5.54083 4.12677 6.01311 3.77834 6.63212C3.43048 7.25014 3.27341 7.91095 3.19806 8.69506C3.12499 9.45539 3.12499 10.3865 3.125 11.556V12.444C3.12499 13.6135 3.12499 14.5446 3.19806 15.3049C3.27341 16.0891 3.43048 16.7499 3.77834 17.3679C4.12677 17.9869 4.60815 18.4592 5.23576 18.9206C5.84271 19.3668 6.63033 19.8332 7.61648 20.4172L8.3696 20.8632C9.35538 21.447 10.1431 21.9135 10.8236 22.2296C11.5269 22.5564 12.1704 22.75 12.875 22.75C13.5796 22.75 14.2231 22.5564 14.9264 22.2296C15.6069 21.9134 16.3946 21.447 17.3804 20.8632L18.1335 20.4172C19.1196 19.8332 19.9073 19.3668 20.5142 18.9206C21.1419 18.4592 21.6232 17.9869 21.9717 17.3679C22.3195 16.7499 22.4766 16.0891 22.5519 15.3049C22.625 14.5446 22.625 13.6135 22.625 12.4441V11.556C22.625 10.3866 22.625 9.45538 22.5519 8.69506C22.4766 7.91095 22.3195 7.25014 21.9717 6.63212C21.6232 6.01311 21.1419 5.54083 20.5142 5.07944C19.9073 4.63324 19.1197 4.16683 18.1335 3.58285L17.3804 3.13685C16.3946 2.55303 15.6069 2.08656 14.9264 1.77037C14.2231 1.44359 13.5796 1.25 12.875 1.25ZM9.10024 4.44744C10.1274 3.83917 10.8511 3.41161 11.4557 3.13069C12.0452 2.85676 12.4657 2.75 12.875 2.75C13.2843 2.75 13.7048 2.85676 14.2943 3.13069C14.8989 3.41161 15.6226 3.83917 16.6498 4.44744L17.3359 4.85379C18.3629 5.46197 19.0859 5.89115 19.6258 6.288C20.1517 6.67467 20.456 6.99746 20.6645 7.36788C20.8736 7.73929 20.9949 8.1739 21.0588 8.83855C21.1242 9.51884 21.125 10.378 21.125 11.5937V12.4063C21.125 13.622 21.1242 14.4812 21.0588 15.1614C20.9949 15.8261 20.8736 16.2607 20.6645 16.6321C20.456 17.0025 20.1517 17.3253 19.6258 17.712C19.0859 18.1089 18.3629 18.538 17.3359 19.1462L16.6498 19.5526C15.6226 20.1608 14.8989 20.5884 14.2943 20.8693C13.7048 21.1432 13.2843 21.25 12.875 21.25C12.4657 21.25 12.0452 21.1432 11.4557 20.8693C10.8511 20.5884 10.1274 20.1608 9.10024 19.5526L8.41409 19.1462C7.3871 18.538 6.66406 18.1089 6.12423 17.712C5.59826 17.3253 5.294 17.0025 5.0855 16.6321C4.87645 16.2607 4.75505 15.8261 4.69118 15.1614C4.6258 14.4812 4.625 13.622 4.625 12.4063V11.5937C4.625 10.378 4.6258 9.51884 4.69118 8.83855C4.75505 8.1739 4.87645 7.73929 5.0855 7.36788C5.294 6.99746 5.59826 6.67467 6.12423 6.288C6.66406 5.89115 7.3871 5.46197 8.41409 4.85379L9.10024 4.44744Z" fill="#6A6D73"/>
</svg>
