<svg width="25" height="24" viewBox="0 0 25 24" fill="none" xmlns="http://www.w3.org/2000/svg">
<path fill-rule="evenodd" clip-rule="evenodd" d="M13.3027 2C12.1889 2 11.1745 2.6007 9.14581 3.80211L8.45966 4.20846C6.43094 5.40987 5.41658 6.01057 4.85966 7C4.30273 7.98943 4.30273 9.19084 4.30273 11.5937V12.4063C4.30273 14.8092 4.30273 16.0106 4.85966 17C5.41658 17.9894 6.43094 18.5901 8.45966 19.7915L9.14581 20.1979C11.1745 21.3993 12.1889 22 13.3027 22C14.4166 22 15.4309 21.3993 17.4597 20.1979L18.1458 19.7915C20.1745 18.5901 21.1889 17.9894 21.7458 17C22.3027 16.0106 22.3027 14.8092 22.3027 12.4063V11.5937C22.3027 9.19084 22.3027 7.98943 21.7458 7C21.1889 6.01057 20.1745 5.40987 18.1458 4.20846L17.4597 3.80211C15.4309 2.6007 14.4166 2 13.3027 2ZM9.55273 12C9.55273 9.92893 11.2317 8.25 13.3027 8.25C15.3738 8.25 17.0527 9.92893 17.0527 12C17.0527 14.0711 15.3738 15.75 13.3027 15.75C11.2317 15.75 9.55273 14.0711 9.55273 12Z" fill="#2466FF"/>
</svg>
