<svg width="24" height="24" viewBox="0 0 24 24" fill="none" xmlns="http://www.w3.org/2000/svg">
<path d="M22.5673 13.7468C22.209 13.2387 22.021 12.6309 22.0301 12.01C22.0324 10.4002 21.6444 8.81355 20.899 7.38516C20.1536 5.95677 19.073 4.72886 17.749 3.80589C16.425 2.88293 14.8968 2.2922 13.2944 2.08397C11.692 1.87574 10.0629 2.05616 8.54551 2.6099C7.96393 2.82712 7.32857 2.85699 6.72904 2.69528C5.75009 2.42095 4.70974 2.45675 3.75212 2.7977C2.7945 3.13865 1.96703 3.76788 1.38437 4.59821C0.801701 5.42854 0.492684 6.41885 0.500132 7.43194C0.507579 8.44502 0.831124 9.43072 1.42594 10.2525C1.78632 10.7634 1.97444 11.3752 1.96314 11.9996C1.96239 13.6089 2.35165 15.1945 3.09784 16.6218C3.84403 18.049 4.92509 19.2757 6.24913 20.1975C7.57316 21.1193 9.10103 21.7091 10.7029 21.9166C12.3047 22.1241 13.9332 21.9432 15.4498 21.3893C16.0316 21.1731 16.6666 21.1432 17.2663 21.304C17.974 21.5043 18.7181 21.5431 19.443 21.4176C20.1679 21.292 20.8551 21.0052 21.4534 20.5786C22.0518 20.152 22.5459 19.5965 22.8991 18.9534C23.2522 18.3104 23.4553 17.5963 23.4933 16.8642C23.5519 15.7501 23.2251 14.6497 22.5673 13.7468ZM11.9966 10.1254L12.3645 10.215C14.3879 10.6939 17.446 11.4186 17.446 14.7755C17.446 16.429 16.6287 17.6909 15.1467 18.3157C14.1371 18.7488 12.9979 18.8259 11.9987 18.83H11.8566C8.68347 18.83 6.67887 16.3707 6.59526 16.2665C6.4681 16.1126 6.37296 15.9349 6.31537 15.744C6.25778 15.553 6.23889 15.3525 6.2598 15.1542C6.28072 14.9559 6.34102 14.7637 6.43719 14.5889C6.53336 14.414 6.66349 14.2599 6.81999 14.1357C6.9765 14.0114 7.15626 13.9193 7.34881 13.8649C7.54135 13.8105 7.74284 13.7947 7.94155 13.8186C8.14026 13.8425 8.33221 13.9055 8.50623 14.004C8.68026 14.1025 8.83288 14.2345 8.95521 14.3923C8.95521 14.3923 10.1592 15.7688 11.8566 15.8209H11.9987C13.9218 15.8542 14.3691 15.2628 14.4297 14.7589C14.4987 14.1591 13.9949 13.7176 11.9987 13.2074C11.8921 13.1783 11.7897 13.1512 11.6684 13.1241C9.74117 12.6785 6.83146 11.9996 6.83146 8.89887C6.83146 7.95344 7.20981 4.91932 11.9966 4.79854H12.2809C15.4728 4.79854 17.3561 7.29747 17.4356 7.40992C17.674 7.73025 17.7749 8.13181 17.7161 8.52625C17.6573 8.92069 17.4436 9.2757 17.122 9.51319C16.8005 9.75067 16.3974 9.85118 16.0015 9.7926C15.6056 9.73402 15.2492 9.52115 15.0108 9.20082C14.9753 9.15501 13.8946 7.95136 12.2809 7.80767C12.1847 7.80767 12.0907 7.79309 11.9966 7.79101C10.8783 7.75977 9.84987 8.18042 9.84987 8.77808C9.84987 9.42156 10.1571 9.6652 11.9966 10.1254Z" fill="white"/>
</svg>
