<svg width="18" height="18" viewBox="0 0 18 18" fill="none" xmlns="http://www.w3.org/2000/svg">
<path d="M5.15084 6.90487L5.59704 7.70438C5.99971 8.4259 5.83806 9.37241 5.20386 10.0066C5.20386 10.0066 4.4346 10.7759 5.82935 12.1706C7.22409 13.5654 7.99339 12.7961 7.99339 12.7961C8.62759 12.1619 9.5741 12.0003 10.2956 12.403L11.0951 12.8492C12.1846 13.4572 12.3133 14.9851 11.3557 15.9428C10.7802 16.5182 10.0753 16.966 9.296 16.9955C7.98416 17.0452 5.75632 16.7132 3.52155 14.4785C1.28678 12.2437 0.954773 10.0158 1.0045 8.704C1.03405 7.92473 1.4818 7.21979 2.05724 6.64435C3.01489 5.68669 4.54281 5.81536 5.15084 6.90487Z" stroke="#111111" stroke-width="0.8" stroke-linecap="round"/>
<path d="M8 5.66667C8 3.93818 8 3.07394 8.53697 2.53697C9.07394 2 9.93818 2 11.6667 2H13.5C15.2285 2 16.0927 2 16.6297 2.53697C17.1667 3.07394 17.1667 3.93818 17.1667 5.66667C17.1667 7.39515 17.1667 8.25939 16.6297 8.79636C16.0927 9.33333 15.2285 9.33333 13.5 9.33333H11.6667C9.93818 9.33333 9.07394 9.33333 8.53697 8.79636C8 8.25939 8 7.39515 8 5.66667Z" stroke="#111111" stroke-width="0.8"/>
<path d="M9.83325 3.83337L10.8227 4.65795C11.6645 5.35944 12.0854 5.71019 12.5833 5.71019C13.0811 5.71019 13.502 5.35945 14.3438 4.65795L15.3333 3.83337" stroke="#111111" stroke-width="0.8" stroke-linecap="round"/>
</svg>
