<svg width="24" height="24" viewBox="0 0 24 24" fill="none" xmlns="http://www.w3.org/2000/svg">
<path d="M3.74132 20.5545C4.94094 22 7.17365 22 11.6391 22H12.3602C16.8257 22 19.0584 22 20.258 20.5545M3.74132 20.5545C2.5417 19.1091 2.95316 16.9146 3.77608 12.5257C4.3613 9.40452 4.65392 7.84393 5.76481 6.92196M3.74132 20.5545C3.74132 20.5545 3.74132 20.5545 3.74132 20.5545ZM20.258 20.5545C21.4576 19.1091 21.0461 16.9146 20.2232 12.5257C19.638 9.40452 19.3454 7.84393 18.2345 6.92196M20.258 20.5545C20.258 20.5545 20.258 20.5545 20.258 20.5545ZM18.2345 6.92196C17.1236 6 15.5358 6 12.3602 6H11.6391C8.4635 6 6.87571 6 5.76481 6.92196M18.2345 6.92196C18.2345 6.92196 18.2345 6.92196 18.2345 6.92196ZM5.76481 6.92196C5.76481 6.92196 5.76482 6.92196 5.76481 6.92196Z" stroke="#111111"/>
<path d="M12 12.1914L11.6542 12.5525C11.8476 12.7376 12.1524 12.7376 12.3458 12.5525L12 12.1914ZM11.0429 15.8656L10.7471 16.2687L11.0429 15.8656ZM12.9571 15.8656L12.6614 15.4625L12.9571 15.8656ZM12 16.3276L12 16.8276L12 16.3276ZM11.0429 15.8656L11.3386 15.4625C10.9137 15.1506 10.4364 14.755 10.0704 14.3317C9.69122 13.8933 9.5 13.5039 9.5 13.1967H9H8.5C8.5 13.874 8.89121 14.4969 9.31399 14.9858C9.74984 15.4898 10.294 15.9363 10.7471 16.2687L11.0429 15.8656ZM9 13.1967H9.5C9.5 12.5338 9.81255 12.1752 10.1592 12.0537C10.5198 11.9273 11.0788 12.0016 11.6542 12.5525L12 12.1914L12.3458 11.8302C11.5712 11.0886 10.6303 10.8289 9.82836 11.11C9.01247 11.396 8.5 12.1864 8.5 13.1967H9ZM12.9571 15.8656L13.2529 16.2687C13.706 15.9363 14.2502 15.4898 14.686 14.9858C15.1088 14.497 15.5 13.874 15.5 13.1967H15H14.5C14.5 13.5039 14.3088 13.8933 13.9296 14.3317C13.5636 14.755 13.0863 15.1506 12.6614 15.4625L12.9571 15.8656ZM15 13.1967H15.5C15.5 12.1864 14.9875 11.396 14.1716 11.11C13.3697 10.8289 12.4288 11.0886 11.6542 11.8302L12 12.1914L12.3458 12.5525C12.9212 12.0016 13.4802 11.9273 13.8408 12.0537C14.1875 12.1752 14.5 12.5338 14.5 13.1967H15ZM11.0429 15.8656L10.7471 16.2687C11.1327 16.5517 11.4786 16.8276 12 16.8276L12 16.3276L12 15.8276C11.8664 15.8276 11.7925 15.7955 11.3386 15.4625L11.0429 15.8656ZM12.9571 15.8656L12.6614 15.4625C12.2075 15.7955 12.1336 15.8276 12 15.8276L12 16.3276L12 16.8276C12.5214 16.8276 12.8673 16.5517 13.2529 16.2687L12.9571 15.8656Z" fill="#111111"/>
<path d="M9 5.99998V4.99998C9 3.34313 10.3431 1.99998 12 1.99998C13.6569 1.99998 15 3.34313 15 4.99998V5.99998" stroke="#111111" stroke-linecap="round"/>
</svg>
