<svg width="24" height="24" viewBox="0 0 24 24" fill="none" xmlns="http://www.w3.org/2000/svg">
<path d="M9.78084 3.89076C10.3447 3.41023 10.6266 3.16997 10.9214 3.02907C11.6032 2.7032 12.3958 2.7032 13.0776 3.02907C13.3724 3.16997 13.6543 3.41023 14.2182 3.89076C14.4426 4.08201 14.5548 4.17764 14.6747 4.25796C14.9494 4.44209 15.2579 4.56988 15.5824 4.63393C15.7239 4.66188 15.8709 4.6736 16.1648 4.69706C16.9033 4.75599 17.2725 4.78546 17.5806 4.89427C18.2931 5.14594 18.8536 5.7064 19.1053 6.41893C19.2141 6.72699 19.2435 7.09625 19.3025 7.83475C19.3259 8.12868 19.3377 8.27564 19.3656 8.41718C19.4297 8.74163 19.5574 9.05014 19.7416 9.32485C19.8219 9.44469 19.9175 9.55691 20.1088 9.78133C20.5893 10.3452 20.8296 10.6271 20.9705 10.9219C21.2963 11.6037 21.2963 12.3963 20.9705 13.0781C20.8296 13.3729 20.5893 13.6548 20.1088 14.2187C19.9175 14.4431 19.8219 14.5553 19.7416 14.6752C19.5574 14.9499 19.4297 15.2584 19.3656 15.5828C19.3377 15.7244 19.3259 15.8713 19.3025 16.1653C19.2435 16.9038 19.2141 17.273 19.1053 17.5811C18.8536 18.2936 18.2931 18.8541 17.5806 19.1058C17.2725 19.2146 16.9033 19.244 16.1648 19.303C15.8709 19.3264 15.7239 19.3381 15.5824 19.3661C15.2579 19.4301 14.9494 19.5579 14.6747 19.7421C14.5548 19.8224 14.4426 19.918 14.2182 20.1093C13.6543 20.5898 13.3724 20.8301 13.0776 20.971C12.3958 21.2968 11.6032 21.2968 10.9214 20.971C10.6267 20.8301 10.3447 20.5898 9.78084 20.1093C9.55642 19.918 9.44421 19.8224 9.32437 19.7421C9.04965 19.5579 8.74114 19.4301 8.41669 19.3661C8.27515 19.3381 8.12819 19.3264 7.83426 19.303C7.09576 19.244 6.72651 19.2146 6.41844 19.1058C5.70591 18.8541 5.14546 18.2936 4.89378 17.5811C4.78497 17.273 4.7555 16.9038 4.69657 16.1653C4.67312 15.8713 4.66139 15.7244 4.63344 15.5828C4.56939 15.2584 4.4416 14.9499 4.25747 14.6752C4.17715 14.5553 4.08152 14.4431 3.89027 14.2187C3.40974 13.6548 3.16948 13.3729 3.02859 13.0781C2.70271 12.3963 2.70271 11.6037 3.02859 10.9219C3.16948 10.6271 3.40974 10.3452 3.89027 9.78133C4.08152 9.55691 4.17715 9.4447 4.25747 9.32485C4.4416 9.05014 4.56939 8.74163 4.63344 8.41718C4.66139 8.27564 4.67312 8.12868 4.69657 7.83475C4.7555 7.09625 4.78497 6.72699 4.89378 6.41893C5.14546 5.7064 5.70591 5.14594 6.41844 4.89427C6.72651 4.78546 7.09576 4.75599 7.83426 4.69706C8.12819 4.6736 8.27515 4.66188 8.41669 4.63393C8.74114 4.56988 9.04965 4.44209 9.32437 4.25796C9.44421 4.17764 9.55642 4.08201 9.78084 3.89076Z" fill="#40AE61" stroke="#40AE61" stroke-width="1.5"/>
<path d="M8.5 12.5L10.5 14.5L15.5 9.5" stroke="white" stroke-width="1.5" stroke-linecap="round" stroke-linejoin="round"/>
</svg>
