<svg width="24" height="24" viewBox="0 0 24 24" fill="none" xmlns="http://www.w3.org/2000/svg">
<path d="M11.9931 2.00001C10.1808 2.00019 8.40266 2.49355 6.84903 3.42728C5.2954 4.361 4.02476 5.69994 3.17312 7.30078C2.32148 8.90161 1.9209 10.7041 2.01427 12.5152C2.10764 14.3263 2.69144 16.078 3.70317 17.5826L2 22L6.54468 20.3739C7.84806 21.2253 9.33217 21.7602 10.8787 21.9361C12.4252 22.1119 13.9914 21.9238 15.4525 21.3868C16.9135 20.8498 18.229 19.9786 19.2941 18.8428C20.3591 17.707 21.1443 16.338 21.5871 14.8447C22.0299 13.3515 22.118 11.7755 21.8444 10.2422C21.5708 8.70886 20.943 7.2607 20.0112 6.01312C19.0794 4.76555 17.8692 3.75304 16.4771 3.0563C15.085 2.35956 13.5496 1.99785 11.9931 2.00001Z" stroke="white" stroke-linecap="round" stroke-linejoin="round"/>
<path d="M9.81828 14.7818C10.9528 15.9163 13.4575 17.3999 14.6182 17.3999C15.1274 17.4052 15.6227 17.2343 16.0203 16.9162C16.4179 16.5981 16.6934 16.1524 16.8 15.6545V14.7818C16.8 14.7818 15.7266 14.2582 15.0546 13.9091C14.3826 13.56 13.3091 14.7818 13.3091 14.7818C12.4924 14.5157 11.7465 14.0682 11.1274 13.4727C10.5319 12.8536 10.0844 12.1077 9.81828 11.2909C9.81828 11.2909 11.0401 10.2175 10.691 9.54548C10.3419 8.87349 9.81828 7.80005 9.81828 7.80005H8.94556C8.44767 7.90669 8.00193 8.18214 7.68385 8.57975C7.36576 8.97735 7.19488 9.47268 7.20013 9.98184C7.20013 11.1426 8.68375 13.6473 9.81828 14.7818Z" stroke="white" stroke-linecap="round" stroke-linejoin="round"/>
</svg>
